<?xml version="1.0" encoding="UTF-8"?>
<svg version="1.1" xmlns="http://www.w3.org/2000/svg" width="1153" height="263">
<path d="M0 0 C76.23 0 152.46 0 231 0 C231 75.9 231 151.8 231 230 C154.77 230 78.54 230 0 230 C0 154.1 0 78.2 0 0 Z " fill="#162938" transform="translate(50,18)"/>
<path d="M0 0 C1.33387437 0.02363003 2.66789942 0.03988784 4.00195312 0.04882812 C6.94375108 0.08690589 9.87693709 0.18210685 12.81591797 0.31591797 C19.85105666 0.63420343 26.88995979 0.82444614 33.92909431 1.03022957 C37.61825575 1.13868442 41.30729168 1.25123133 44.99633789 1.36352539 C46.89289879 1.42099693 46.89289879 1.42099693 48.82777405 1.47962952 C50.18146339 1.52065041 50.18146339 1.52065041 51.5625 1.5625 C51.5858285 18.88627352 51.60347893 36.21004216 51.61431217 53.53382778 C51.61947523 61.57700054 51.62651812 69.62016357 51.63793945 77.66333008 C51.64788598 84.6712296 51.65435335 91.67912208 51.65658849 98.68702847 C51.65789566 102.39993192 51.66098184 106.1128152 51.66823006 109.8257122 C51.67624332 113.96381411 51.67649116 118.10188061 51.67602539 122.23999023 C51.67962067 123.48004318 51.68321594 124.72009613 51.68692017 125.99772644 C51.6855455 127.11818359 51.68417084 128.23864075 51.68275452 129.39305115 C51.68367631 130.37291709 51.6845981 131.35278303 51.68554783 132.36234188 C51.5625 134.5625 51.5625 134.5625 50.5625 135.5625 C49.15901265 135.66110131 47.75069523 135.69328937 46.34375 135.6953125 C45.06951172 135.69724609 45.06951172 135.69724609 43.76953125 135.69921875 C42.87621094 135.69535156 41.98289062 135.69148437 41.0625 135.6875 C39.72251953 135.69330078 39.72251953 135.69330078 38.35546875 135.69921875 C37.50597656 135.69792969 36.65648437 135.69664062 35.78125 135.6953125 C34.99685547 135.69418457 34.21246094 135.69305664 33.40429688 135.69189453 C31.5625 135.5625 31.5625 135.5625 30.5625 134.5625 C30.46930551 133.0276703 30.445042 131.48857918 30.44897461 129.95092773 C30.44905014 128.96998642 30.44912567 127.9890451 30.44920349 126.9783783 C30.45436478 125.9117244 30.45952606 124.8450705 30.46484375 123.74609375 C30.4662587 122.6599025 30.46767365 121.57371124 30.46913147 120.4546051 C30.47474952 116.96970925 30.48730508 113.48487658 30.5 110 C30.50501267 107.64388113 30.50957598 105.28776126 30.51367188 102.93164062 C30.52387589 97.14188289 30.54344776 91.35226255 30.5625 85.5625 C16.3725 85.5625 2.1825 85.5625 -12.4375 85.5625 C-12.4375 102.0625 -12.4375 118.5625 -12.4375 135.5625 C-18.7075 135.5625 -24.9775 135.5625 -31.4375 135.5625 C-33.02580576 133.97419424 -32.61335266 132.31335455 -32.66542053 130.10813904 C-32.68991776 129.14543091 -32.71441498 128.18272278 -32.73965454 127.19084167 C-32.76119598 126.12553726 -32.78273743 125.06023285 -32.80493164 123.96264648 C-32.83077835 122.84703339 -32.85662506 121.73142029 -32.883255 120.58200073 C-33.10968109 110.23736953 -33.24497181 99.89117077 -33.34862614 89.54464626 C-33.41982164 82.59554569 -33.52081919 75.64963696 -33.69946289 68.70239258 C-33.872223 61.98340791 -33.95901618 55.26823786 -33.99447441 48.54689217 C-34.02135034 45.99465455 -34.07593167 43.44254123 -34.15974617 40.89153862 C-34.84586588 19.01422946 -34.84586588 19.01422946 -27.43667507 10.0792017 C-19.0708703 1.54206175 -11.62225518 -0.70474944 0 0 Z M-12.4375 19.5625 C-12.4375 39.6925 -12.4375 59.8225 -12.4375 80.5625 C-5.83203964 75.34491785 -5.83203964 75.34491785 -2.9609375 71.2421875 C1.000027 67.20753064 6.43772024 67.74120602 11.75390625 67.6796875 C13.14843855 67.68165301 14.54297007 67.68426518 15.9375 67.6875 C17.35550574 67.66935782 18.77348002 67.64855033 20.19140625 67.625 C23.64861192 67.57335217 27.10485902 67.55805492 30.5625 67.5625 C30.5404248 66.49402832 30.51834961 65.42555664 30.49560547 64.32470703 C30.42627895 60.31715601 30.42383637 56.31175037 30.44042969 52.30371094 C30.43849648 50.57736084 30.41900873 48.85092961 30.38085938 47.125 C30.06507952 31.96756701 30.06507952 31.96756701 33.86425781 27.17089844 C36.31709089 24.74229087 38.80647852 22.63186553 41.5625 20.5625 C41.5625 20.2325 41.5625 19.9025 41.5625 19.5625 C23.7425 19.5625 5.9225 19.5625 -12.4375 19.5625 Z " fill="#182D3A" transform="translate(1002.4375,61.4375)"/>
<path d="M0 0 C6.6 0 13.2 0 20 0 C20.33 3.96 20.66 7.92 21 12 C22.64886059 10.37807179 24.2940024 8.75236228 25.9375 7.125 C26.85402344 6.22007813 27.77054687 5.31515625 28.71484375 4.3828125 C31.01187627 2.22317745 31.01187627 2.22317745 32 0 C51.38230453 -1.73868313 51.38230453 -1.73868313 56.62109375 2.2265625 C59.02400941 4.70271652 61.09603799 7.12609509 63 10 C66.41707547 8.56182428 68.18727685 6.7774642 70.5625 3.96875 C74.50852085 -0.05021024 77.50713087 -1.20829967 83.09765625 -1.484375 C84.05542969 -1.48953125 85.01320313 -1.4946875 86 -1.5 C87.39025391 -1.64695312 87.39025391 -1.64695312 88.80859375 -1.796875 C96.69532881 -1.9252886 103.23824733 2.11829693 108.81298828 7.38183594 C119.32625821 20.05387219 115.65793256 41.13357253 115.09863281 56.50140381 C114.93349072 61.52198909 114.86157723 66.54387487 114.78125 71.56640625 C114.61081576 81.38101737 114.33861201 91.1898495 114 101 C110.85418577 101.02888514 107.70840531 101.04675923 104.5625 101.0625 C103.66466797 101.07087891 102.76683594 101.07925781 101.84179688 101.08789062 C100.56079102 101.09272461 100.56079102 101.09272461 99.25390625 101.09765625 C98.46314697 101.10289307 97.6723877 101.10812988 96.85766602 101.11352539 C95 101 95 101 94 100 C93.90493948 97.44410112 93.87443239 94.91532028 93.88647461 92.35913086 C93.88632858 91.55919205 93.88618256 90.75925323 93.8860321 89.93507385 C93.88673145 87.27830335 93.89452482 84.62160207 93.90234375 81.96484375 C93.90420785 80.12781309 93.90563179 78.29078194 93.90663147 76.45375061 C93.91045725 71.60890338 93.92028804 66.76408592 93.93133545 61.91925049 C93.94154828 56.97937422 93.94612881 52.03949315 93.95117188 47.09960938 C93.96191026 37.39972437 93.97950754 27.69986931 94 18 C85.09 18 76.18 18 67 18 C67.00523682 20.47878662 67.01047363 22.95757324 67.01586914 25.51147461 C67.03240482 33.68184706 67.04347114 41.85222022 67.05181217 50.02260494 C67.05704103 54.97853922 67.06413874 59.93445642 67.07543945 64.89038086 C67.08626822 69.66898836 67.09227681 74.44757938 67.09487724 79.2261982 C67.09673151 81.05353619 67.10035216 82.88087324 67.10573006 84.70820427 C67.11294036 87.25853329 67.11399095 89.80879337 67.11352539 92.35913086 C67.11712067 93.12229614 67.12071594 93.88546143 67.12442017 94.67175293 C67.11405216 99.88594784 67.11405216 99.88594784 66 101 C59.73 101 53.46 101 47 101 C47 73.61 47 46.22 47 18 C38.09 18 29.18 18 20 18 C20 45.39 20 72.78 20 101 C13.73 101 7.46 101 1 101 C-0.94297324 99.05702676 -0.12020298 96.11495819 -0.12442017 93.52944946 C-0.12082489 92.59797089 -0.11722961 91.66649231 -0.11352539 90.70678711 C-0.11367142 89.73128403 -0.11381744 88.75578094 -0.1139679 87.75071716 C-0.11326833 84.50957047 -0.10547391 81.26848046 -0.09765625 78.02734375 C-0.09579222 75.78674857 -0.09436825 73.54615298 -0.09336853 71.30555725 C-0.08954213 65.3954049 -0.0797108 59.48527695 -0.06866455 53.57513428 C-0.05845306 47.54944183 -0.05387147 41.52374547 -0.04882812 35.49804688 C-0.03808864 23.66535211 -0.02049086 11.8326819 0 0 Z " fill="#192E3B" transform="translate(392,96)"/>
<path d="M0 0 C3.51201067 0.16592823 7.02594303 0.2372121 10.54077148 0.31738281 C17.39434364 0.48721586 24.24044058 0.75893006 31.08764648 1.09863281 C27.6708651 8.34432882 21.97087282 14.94730264 15.08764648 19.09863281 C8.32346917 21.20418513 1.17650721 20.42629234 -5.78735352 19.97363281 C-12.09860352 19.68488281 -18.40985352 19.39613281 -24.91235352 19.09863281 C-24.91235352 40.21863281 -24.91235352 61.33863281 -24.91235352 83.09863281 C-15.34235352 83.09863281 -5.77235352 83.09863281 4.08764648 83.09863281 C4.08764648 66.92863281 4.08764648 50.75863281 4.08764648 34.09863281 C10.68764648 34.09863281 17.28764648 34.09863281 24.08764648 34.09863281 C24.45065136 46.99089048 24.74349956 59.87969959 24.91664124 72.77593231 C24.9997873 78.76581708 25.11233157 84.75199498 25.29467773 90.73974609 C25.46989265 96.5302657 25.56446315 102.31724652 25.60568237 108.11021423 C25.6350107 110.30809728 25.69228869 112.50580892 25.77932739 114.7021637 C26.18371527 125.33995016 26.1360849 133.95134483 18.95510864 142.3481369 C13.72522006 147.65147386 8.69924493 151.83659597 1.13061523 152.91503906 C-1.15610647 152.91257155 -3.44408219 152.82600979 -5.72485352 152.66113281 C-6.94519287 152.63849365 -8.16553223 152.61585449 -9.42285156 152.5925293 C-13.25953514 152.50408331 -17.08032717 152.3037817 -20.91235352 152.09863281 C-23.53713487 152.01822943 -26.1621547 151.94525131 -28.78735352 151.87988281 C-35.16762704 151.7050188 -41.53885653 151.43862461 -47.91235352 151.09863281 C-47.3359462 150.44324272 -47.3359462 150.44324272 -46.74789429 149.77461243 C-44.27445441 146.9311623 -41.93963135 144.13810363 -39.79370117 141.03295898 C-34.4631156 133.82578338 -34.4631156 133.82578338 -29.91711426 132.52984619 C-24.36509192 131.73685548 -18.86875352 132.09859654 -13.28735352 132.41113281 C-4.68672852 132.75144531 -4.68672852 132.75144531 4.08764648 133.09863281 C3.75764648 118.57863281 3.42764648 104.05863281 3.08764648 89.09863281 C-1.53235352 92.72863281 -6.15235352 96.35863281 -10.91235352 100.09863281 C-15.66658712 103.26812189 -20.0933832 103.72306555 -25.72052002 102.76368713 C-33.07179988 100.53313429 -38.8699455 94.25932204 -43.26403809 88.21212769 C-48.36420547 78.57844672 -47.35969976 66.2690923 -47.07373047 55.64233398 C-46.9710326 51.7982517 -47.01839767 47.97263474 -47.10486794 44.12877464 C-47.63013837 16.76936746 -47.63013837 16.76936746 -38.72094727 7.04003906 C-28.1815811 -2.50022387 -13.24784767 -0.69355552 0 0 Z " fill="#192D3B" transform="translate(672.912353515625,94.9013671875)"/>
<path d="M0 0 C18.48 0 36.96 0 56 0 C56 16.83 56 33.66 56 51 C54.35 51.66 52.7 52.32 51 53 C49.69934079 54.93383287 49.69934079 54.93383287 49 57 C48.505 57.99 48.505 57.99 48 59 C46.515 58.505 46.515 58.505 45 58 C45 57.01 45 56.02 45 55 C44.01 55.99 44.01 55.99 43 57 C43.33 55.68 43.66 54.36 44 53 C46.31 52.34 48.62 51.68 51 51 C50.01 50.01 49.02 49.02 48 48 C47.67 49.32 47.34 50.64 47 52 C37 52 37 52 34 50 C34 49.34 34 48.68 34 48 C33.01 48 32.02 48 31 48 C31 47.01 31 46.02 31 45 C30.525625 46.134375 30.05125 47.26875 29.5625 48.4375 C28 52 28 52 27 53 C25.00041636 53.04080783 22.99954746 53.04254356 21 53 C20.65388672 51.91332031 20.65388672 51.91332031 20.30078125 50.8046875 C17.85147786 43.54390669 15.8069723 38.40004776 9.125 34.1875 C5.73173284 32.89805848 2.60392648 32.36039265 -1 32 C-0.525625 32.433125 -0.05125 32.86625 0.4375 33.3125 C2 35 2 35 3 38 C4.55976028 39.54255242 4.55976028 39.54255242 6.5 41.0625 C15.60194184 48.84791097 22.09298753 57.61552603 28 68 C28.59941406 68.99386719 28.59941406 68.99386719 29.2109375 70.0078125 C33.98960865 78.53296184 39.56094165 93.24708054 37 103 C34 105 34 105 31.3125 104.625 C30.549375 104.41875 29.78625 104.2125 29 104 C28.01 101.03 27.02 98.06 26 95 C25.0821875 95.85722656 24.164375 96.71445313 23.21875 97.59765625 C7.45647864 112.29421242 7.45647864 112.29421242 2.36328125 116.28125 C-1.09661737 119.00036428 -3.37520073 121.72606421 -5.62890625 125.44921875 C-8.097686 128.24154229 -11.08637754 128.87366211 -14.68359375 129.37109375 C-23.03653104 129.5725121 -23.03653104 129.5725121 -26.5625 126.75 C-30.65513163 122.132672 -31.566425 118.64670951 -31.44921875 112.54296875 C-30.68701771 108.22824811 -28.32237178 105.71327029 -25 103 C-21.06991331 100.68225657 -17.50878357 100.59743004 -13 101 C-10.12694028 102.40460697 -8.25489001 103.74510999 -6 106 C-1.94061206 105.78957816 0.24153428 103.19217347 3.0625 100.5 C7.82172446 96.04782228 12.70266456 91.89599404 17.78515625 87.8125 C20.02753567 86.03873643 20.02753567 86.03873643 22 84 C21.01054869 71.31382076 9.97432641 58.17061631 1.0546875 49.703125 C-6.81948737 43.17624241 -15.66078746 37.87050811 -24.41796875 32.62890625 C-27 31 -27 31 -29 29 C-29.3125 26.5 -29.3125 26.5 -29 24 C-26 22 -26 22 -22.9375 22.3125 C-20 23 -20 23 -18 24 C-18.309375 23.236875 -18.61875 22.47375 -18.9375 21.6875 C-19.67893593 19.81210323 -20.36228217 17.91315348 -21 16 C-21.66 15.67 -22.32 15.34 -23 15 C-20.66666667 12.66666667 -18.33333333 10.33333333 -16 8 C-16 8.66 -16 9.32 -16 10 C-14.35 10 -12.7 10 -11 10 C-10.67 9.34 -10.34 8.68 -10 8 C-9.34 7.34 -8.68 6.68 -8 6 C-6.68 6 -5.36 6 -4 6 C-4 5.34 -4 4.68 -4 4 C-3.34 4 -2.68 4 -2 4 C-2 3.34 -2 2.68 -2 2 C-1.34 2 -0.68 2 0 2 C0 1.34 0 0.68 0 0 Z M35 52 C35.99 52.33 36.98 52.66 38 53 C37.67 53.66 37.34 54.32 37 55 C36.34 55 35.68 55 35 55 C35 54.01 35 53.02 35 52 Z " fill="#2D444E" transform="translate(225,18)"/>
<path d="M0 0 C0.807789 0.02830902 1.615578 0.05661804 2.44784546 0.08578491 C11.89436715 0.46402062 21.44682738 1.25053461 28.75 7.875 C36.42398562 16.5113449 36.80924426 29.13158495 36.38842773 40.15283203 C35.69220071 50.44072131 33.45847428 58.53959763 25.63525391 65.75927734 C14.88838524 73.52295229 -0.09548973 71.41641119 -12.5625 70.0625 C-12.5625 66.0625 -12.5625 66.0625 -10.55078125 63.87890625 C-9.22626953 62.76322266 -9.22626953 62.76322266 -7.875 61.625 C-4.95449093 59.15661995 -2.53797844 57.03088009 -0.1875 54 C2.4375 52.0625 2.4375 52.0625 14.4375 52.0625 C14.4375 41.5025 14.4375 30.9425 14.4375 20.0625 C4.8675 20.0625 -4.7025 20.0625 -14.5625 20.0625 C-14.5625 41.1825 -14.5625 62.3025 -14.5625 84.0625 C1.6075 84.0625 17.7775 84.0625 34.4375 84.0625 C34.4375 90.0025 34.4375 95.9425 34.4375 102.0625 C32.81693842 103.68306158 31.01017455 103.23898087 28.76928711 103.28710938 C27.77412582 103.30962769 26.77896454 103.332146 25.75364685 103.35534668 C21.17315978 103.42624238 16.59284194 103.48393221 12.01196289 103.52246094 C9.599651 103.54901791 7.18745156 103.589887 4.77563477 103.64550781 C1.2965709 103.72483267 -2.18031918 103.75780968 -5.66015625 103.78125 C-6.73129166 103.81424194 -7.80242706 103.84723389 -8.90602112 103.88122559 C-14.10989732 103.86741831 -17.63919667 103.58612295 -21.68139648 100.14257812 C-22.98008711 98.78731571 -24.27337383 97.42686332 -25.5625 96.0625 C-26.43897186 95.34969376 -27.31544373 94.63688751 -28.21847534 93.90248108 C-33.51631451 89.39161266 -36.15302477 86.05963807 -36.9675293 79.04663086 C-37.08065769 76.35873931 -37.14017862 73.71337857 -37.13671875 71.02734375 C-37.16131729 69.58017293 -37.18778895 68.13303288 -37.21601868 66.68592834 C-37.26211918 63.66189569 -37.26900717 60.64075292 -37.25073242 57.61645508 C-37.23652842 54.5467672 -37.28470131 51.48888937 -37.39428711 48.42114258 C-38.3740582 20.64099351 -38.3740582 20.64099351 -30.30279541 10.76867676 C-21.37161968 1.78537403 -12.36052129 -0.74733753 0 0 Z " fill="#182D39" transform="translate(757.5625,93.9375)"/>
<path d="M0 0 C5.66924048 -0.4265344 11.32883489 -0.73131278 17.01049805 -0.93383789 C18.93305205 -1.01834752 20.85454686 -1.13363726 22.77319336 -1.2824707 C33.64816144 -2.10370555 43.17786754 -1.36615584 51.80859375 5.91015625 C61.08204949 15.22322162 60.69655506 27.20162288 60.69495583 39.53105354 C60.63955483 45.21986011 60.44509089 50.90017245 60.22558594 56.58465576 C60.05709884 61.4680211 59.99359235 66.35276005 59.91796875 71.23828125 C59.79152601 78.33971033 59.63237094 85.43883834 59.38330078 92.53710938 C59.34863205 93.65582176 59.34863205 93.65582176 59.31326294 94.7971344 C59.11788362 99.88211638 59.11788362 99.88211638 58 101 C56.59651265 101.09860131 55.18819523 101.13078937 53.78125 101.1328125 C52.50701172 101.13474609 52.50701172 101.13474609 51.20703125 101.13671875 C50.31371094 101.13285156 49.42039062 101.12898438 48.5 101.125 C47.60667969 101.12886719 46.71335937 101.13273437 45.79296875 101.13671875 C44.94347656 101.13542969 44.09398437 101.13414062 43.21875 101.1328125 C42.43435547 101.13168457 41.64996094 101.13055664 40.84179688 101.12939453 C39 101 39 101 38 100 C37.76636119 98.15108054 37.58696365 96.29511969 37.4375 94.4375 C37.35371094 93.42558594 37.26992188 92.41367188 37.18359375 91.37109375 C37.09271484 90.19740234 37.09271484 90.19740234 37 89 C36.35417969 89.86625 35.70835937 90.7325 35.04296875 91.625 C30.33012329 97.40914148 25.83624786 101.67545493 18.21923828 102.71557617 C9.57952882 103.06351335 2.82630637 100.32890919 -3.6875 94.6875 C-11.69602155 86.62830306 -13.00175551 77.33643052 -13.0625 66.4375 C-12.88695355 56.50053052 -12.02164678 46.4790452 -5.0625 38.8125 C3.20372999 31.13821997 14.20195109 31.7253349 24.80587769 32.07632446 C29.22061892 32.27609 33.59141849 32.62744382 38 33 C38 28.05 38 23.1 38 18 C20.84 18 3.68 18 -14 18 C-11.17741417 13.76612126 -8.70650731 10.40767399 -5.3125 6.75 C-2.30675154 3.61675945 -2.30675154 3.61675945 0 0 Z M37 34 C35.57662189 35.51627226 34.18686447 37.06416397 32.8125 38.625 C31.98878906 39.53378906 31.16507813 40.44257813 30.31640625 41.37890625 C28.0786427 43.84014504 28.0786427 43.84014504 26.52734375 45.96484375 C25.25 47.5625 25.25 47.5625 22 50 C15.565 50.495 15.565 50.495 9 51 C9 61.23 9 71.46 9 82 C18.57 82 28.14 82 38 82 C38 66.16 38 50.32 38 34 C37.67 34 37.34 34 37 34 Z " fill="#182C39" transform="translate(543,96)"/>
<path d="M0 0 C6.6 0 13.2 0 20 0 C20.33 3.96 20.66 7.92 21 12 C21.63421875 11.13375 22.2684375 10.2675 22.921875 9.375 C27.67301096 3.47519934 32.24708066 -0.76434345 40.01312256 -1.66976929 C48.58799675 -2.12740772 55.64924817 0.29588977 62.07421875 5.95703125 C69.92218652 13.40499022 71.23870035 21.01584767 71.63267517 31.34562683 C71.78597665 39.76716459 71.55051511 48.17001891 71.22558594 56.58465576 C71.05709884 61.4680211 70.99359235 66.35276005 70.91796875 71.23828125 C70.79152601 78.33971033 70.63237094 85.43883834 70.38330078 92.53710938 C70.34863205 93.65582176 70.34863205 93.65582176 70.31326294 94.7971344 C70.11788362 99.88211638 70.11788362 99.88211638 69 101 C67.59651265 101.09860131 66.18819523 101.13078937 64.78125 101.1328125 C63.50701172 101.13474609 63.50701172 101.13474609 62.20703125 101.13671875 C61.31371094 101.13285156 60.42039062 101.12898438 59.5 101.125 C58.60667969 101.12886719 57.71335937 101.13273437 56.79296875 101.13671875 C55.94347656 101.13542969 55.09398437 101.13414062 54.21875 101.1328125 C53.43435547 101.13168457 52.64996094 101.13055664 51.84179688 101.12939453 C50 101 50 101 49 100 C48.90493948 97.44410112 48.87443239 94.91532028 48.88647461 92.35913086 C48.88632858 91.55919205 48.88618256 90.75925323 48.8860321 89.93507385 C48.88673145 87.27830335 48.89452482 84.62160207 48.90234375 81.96484375 C48.90420785 80.12781309 48.90563179 78.29078194 48.90663147 76.45375061 C48.91045725 71.60890338 48.92028804 66.76408592 48.93133545 61.91925049 C48.94154828 56.97937422 48.94612881 52.03949315 48.95117188 47.09960938 C48.96191026 37.39972437 48.97950754 27.69986931 49 18 C39.43 18 29.86 18 20 18 C20 45.39 20 72.78 20 101 C13.73 101 7.46 101 1 101 C-0.94297324 99.05702676 -0.12020298 96.11495819 -0.12442017 93.52944946 C-0.12082489 92.59797089 -0.11722961 91.66649231 -0.11352539 90.70678711 C-0.11367142 89.73128403 -0.11381744 88.75578094 -0.1139679 87.75071716 C-0.11326833 84.50957047 -0.10547391 81.26848046 -0.09765625 78.02734375 C-0.09579222 75.78674857 -0.09436825 73.54615298 -0.09336853 71.30555725 C-0.08954213 65.3954049 -0.0797108 59.48527695 -0.06866455 53.57513428 C-0.05845306 47.54944183 -0.05387147 41.52374547 -0.04882812 35.49804688 C-0.03808864 23.66535211 -0.02049086 11.8326819 0 0 Z " fill="#182D3A" transform="translate(869,96)"/>
<path d="M0 0 C7.65374424 -0.07586651 15.30739207 -0.12852217 22.96142578 -0.16479492 C25.56693139 -0.17991108 28.17241144 -0.20040432 30.77783203 -0.22631836 C34.51601456 -0.26257688 38.25386165 -0.27969798 41.9921875 -0.29296875 C43.16304901 -0.30845261 44.33391052 -0.32393646 45.54025269 -0.33988953 C46.62122223 -0.34011612 47.70219177 -0.34034271 48.81591797 -0.34057617 C50.24821243 -0.35056892 50.24821243 -0.35056892 51.70944214 -0.36076355 C52.46532623 -0.24171158 53.22121033 -0.12265961 54 0 C54.99 1.485 54.99 1.485 56 3 C55.01 3.99 54.02 4.98 53 6 C53.99 6.495 53.99 6.495 55 7 C55.495 7.99 55.495 7.99 56 9 C56.99 8.34 57.98 7.68 59 7 C58.505 6.01 58.505 6.01 58 5 C60.97 5.495 60.97 5.495 64 6 C63.34 6.33 62.68 6.66 62 7 C62.99 7 63.98 7 65 7 C65.99 7.33 66.98 7.66 68 8 C68.99 8 69.98 8 71 8 C71.33 7.67 71.66 7.34 72 7 C73.66270287 5.66172696 75.32916181 4.32810215 77 3 C79.75561383 5.03675805 80.03270868 6.15809196 80.75 9.625 C80.8325 10.73875 80.915 11.8525 81 13 C80.67 13.33 80.34 13.66 80 14 C80.99 14.495 80.99 14.495 82 15 C81 17 81 17 79.3515625 17.6640625 C76.2325586 18.10963449 73.49614189 17.79068255 70.375 17.375 C69.22773438 17.23835938 68.08046875 17.10171875 66.8984375 16.9609375 C64 16 64 16 62.6015625 13.4140625 C62.30378906 12.21910156 62.30378906 12.21910156 62 11 C59.8614515 13.1385485 59.57344937 14.13275314 59 17 C59.9178125 16.95359375 60.835625 16.9071875 61.78125 16.859375 C75.31935772 16.46119536 75.31935772 16.46119536 81 21 C84.78008107 24.78008107 85.27901132 27.89576902 85.4375 33.0625 C85.4316174 37.63327723 84.67371807 40.27474772 82 44 C76.8074295 48.67331345 72.63757467 49.46843561 65.8046875 49.4140625 C61.98779087 48.85056523 60.02236167 47.37477025 57.2421875 44.80078125 C55.71091549 42.58091837 55.36990372 40.64796932 55 38 C54.45061768 38.12640869 53.90123535 38.25281738 53.33520508 38.38305664 C50.82988464 38.9533241 48.32136081 39.50802529 45.8125 40.0625 C44.94818359 40.26166016 44.08386719 40.46082031 43.19335938 40.66601562 C34.75433013 42.50902201 34.75433013 42.50902201 31 41 C28.76079757 37.64119635 28.75396666 36.48423396 28.8125 32.5625 C28.81894531 31.61503906 28.82539062 30.66757812 28.83203125 29.69140625 C28.98089279 27.30615964 29.37032274 25.29202521 30 23 C30 22.34 30 21.68 30 21 C29.01 21 28.02 21 27 21 C26.34 21.66 25.68 22.32 25 23 C24.34 22.67 23.68 22.34 23 22 C22.375 19.4375 22.375 19.4375 22 17 C21.01 17 20.02 17 19 17 C18.34 17.66 17.68 18.32 17 19 C16.1028125 18.4740625 16.1028125 18.4740625 15.1875 17.9375 C12.89186786 16.66695302 12.89186786 16.66695302 10 18 C9.67 18.99 9.34 19.98 9 21 C13.41225737 22.47075246 16.48281619 23.36884358 21 22 C20.649375 22.70125 20.29875 23.4025 19.9375 24.125 C18.8360807 27.50268586 19.20483859 29.58080593 20 33 C18.7934375 33.680625 18.7934375 33.680625 17.5625 34.375 C14.91143428 35.74725665 14.91143428 35.74725665 14 38 C13.87384173 39.47745349 13.77257972 40.95711283 13.6875 42.4375 C13.24030843 46.71677935 13.24030843 46.71677935 11.25 49.0625 C8.53298246 50.19459064 6.909823 50.52227592 4 50 C2.1875 48.1875 2.1875 48.1875 1 46 C1 45.01 1 44.02 1 43 C-0.32 42.67 -1.64 42.34 -3 42 C-3.27714844 42.71027344 -3.55429688 43.42054687 -3.83984375 44.15234375 C-4.20207031 45.07144531 -4.56429687 45.99054687 -4.9375 46.9375 C-5.29714844 47.85402344 -5.65679687 48.77054688 -6.02734375 49.71484375 C-7 52 -7 52 -8 53 C-10.4375 53.1875 -10.4375 53.1875 -13 53 C-15.4499368 50.5500632 -15.29666876 49.8095533 -15.3125 46.4375 C-15.13612152 38.27705556 -12.22647001 31.84979622 -8 25 C-5.69 25 -3.38 25 -1 25 C-0.566875 23.88625 -0.566875 23.88625 -0.125 22.75 C0.82302644 20.43260203 1.84845911 18.22082885 3 16 C4.65 16 6.3 16 8 16 C8.69159401 14.15274948 8.69159401 14.15274948 9 12 C8.34 11.01 7.68 10.02 7 9 C7.66 7.68 8.32 6.36 9 5 C8.01 5.66 7.02 6.32 6 7 C5.67 6.34 5.34 5.68 5 5 C1.7 5 -1.6 5 -5 5 C-4.67 4.01 -4.34 3.02 -4 2 C-2.68 2 -1.36 2 0 2 C0 1.34 0 0.68 0 0 Z " fill="#29404A" transform="translate(98,18)"/>
<path d="M0 0 C2.81640625 1.94921875 2.81640625 1.94921875 5.5625 4.6875 C6.59993444 5.6969497 7.63770956 6.70604937 8.67578125 7.71484375 C9.48329834 8.51704346 9.48329834 8.51704346 10.30712891 9.33544922 C13.22657336 12.20605382 16.24322897 14.97150964 19.25 17.75 C19.84868896 18.30695557 20.44737793 18.86391113 21.06420898 19.43774414 C24.63899379 22.76105653 28.25869662 26.01735274 31.95703125 29.203125 C34.62027354 31.54555608 37.21165506 33.9639198 39.8125 36.375 C43.7184709 39.99525866 47.70777997 43.42756335 51.875 46.75 C60.94345754 54.13619295 60.94345754 54.13619295 63 58 C63.1875 61.75 63.1875 61.75 62 65 C59.49240161 67.15932084 57.86107141 67.91621727 54.57617188 68.23583984 C51.52400604 67.95642436 50.39218956 67.20246132 48.03125 65.2890625 C47.30212402 64.70890381 46.57299805 64.12874512 45.82177734 63.53100586 C44.67249756 62.58753296 44.67249756 62.58753296 43.5 61.625 C41.87790699 60.32644455 40.25550961 59.02826923 38.6328125 57.73046875 C37.84036133 57.09028809 37.04791016 56.45010742 36.23144531 55.79052734 C33.31783163 53.45262332 30.35182845 51.19436868 27.375 48.9375 C21.72811308 44.60583738 16.20374002 40.13426338 10.69262695 35.6315918 C6.34428469 32.08102255 1.95952788 28.58756976 -2.49609375 25.171875 C-4 24 -4 24 -5 23 C-11.28897409 21.90626538 -14.83169902 24.3125312 -19.96875 27.8125 C-20.9690625 28.534375 -21.969375 29.25625 -23 30 C-23.53496094 30.38542969 -24.06992188 30.77085938 -24.62109375 31.16796875 C-31.34741705 36.05840145 -37.46132864 41.12955086 -43.09765625 47.28515625 C-45.12702733 49.11450719 -46.28016001 49.81339975 -49 50 C-52.63803132 46.36196868 -51.45600606 40.60657278 -51.5 35.6875 C-51.54125 34.54603516 -51.5825 33.40457031 -51.625 32.22851562 C-51.70163679 24.033169 -51.70163679 24.033169 -49.73876953 21.14282227 C-46.89774942 18.71452089 -43.58021127 17.22563772 -40.1171875 15.87890625 C-37.33683108 14.72469925 -34.6842582 13.36221083 -32 12 C-27.71956925 9.83859437 -23.40760063 7.8889717 -19 6 C-18.0615625 5.50113281 -17.123125 5.00226563 -16.15625 4.48828125 C-15.1146875 3.93527344 -14.073125 3.38226563 -13 2.8125 C-12.030625 2.28269531 -11.06125 1.75289063 -10.0625 1.20703125 C-6.35807974 -0.25300174 -3.95099582 -0.53331777 0 0 Z " fill="#F5F6F3" transform="translate(125,92)"/>
<path d="M0 0 C15.84 0 31.68 0 48 0 C48 0.66 48 1.32 48 2 C46.02 2.99 46.02 2.99 44 4 C44.67546875 3.98839844 45.3509375 3.97679687 46.046875 3.96484375 C46.93890625 3.95582031 47.8309375 3.94679688 48.75 3.9375 C50.07257813 3.92009766 50.07257813 3.92009766 51.421875 3.90234375 C53.7818838 3.99173802 55.74498524 4.33087179 58 5 C57.34 6.65 56.68 8.3 56 10 C56.66 10.66 57.32 11.32 58 12 C57.34 13.32 56.68 14.64 56 16 C54.35 16 52.7 16 51 16 C50.896875 16.556875 50.79375 17.11375 50.6875 17.6875 C49.81214868 20.63186352 48.94809828 22.59734546 47 25 C45.865625 25.103125 44.73125 25.20625 43.5625 25.3125 C40.0468255 25.59307868 40.0468255 25.59307868 38.7265625 27.58203125 C34.91999677 35.06636913 33.63360454 42.71311962 33 51 C32.34 49.68 31.68 48.36 31 47 C30.95875 47.61875 30.9175 48.2375 30.875 48.875 C30.58625 49.57625 30.2975 50.2775 30 51 C28 51.66666667 26 52.33333333 24 53 C21.73122465 55.41880929 21.73122465 55.41880929 20 58 C18.66666667 59.33333333 17.33333333 60.66666667 16 62 C16 61.34 16 60.68 16 60 C14.576875 60.2475 14.576875 60.2475 13.125 60.5 C10 61 10 61 8 61 C6.37485532 62.45833358 6.37485532 62.45833358 5 64 C5 63.34 5 62.68 5 62 C2.8614515 64.1385485 2.57344937 65.13275314 2 68 C1.34 68 0.68 68 0 68 C0 45.56 0 23.12 0 0 Z " fill="#223946" transform="translate(50,18)"/>
<path d="M0 0 C2.9375 0.5 2.9375 0.5 4.82397461 2.01196289 C7.34279537 3.78535004 8.6523025 3.79620158 11.69140625 3.80859375 C17.60245422 4.24945806 20.59836926 6.66229509 24.875 10.5625 C26.25728085 11.75473352 27.64140075 12.94483812 29.02734375 14.1328125 C29.69233887 14.71192383 30.35733398 15.29103516 31.04248047 15.88769531 C34.39322165 18.73854494 37.95603901 21.2500385 41.55859375 23.7734375 C43.9375 25.5 43.9375 25.5 46.03515625 27.3515625 C48.79330525 29.75329065 50.68888382 31.39133878 54.40625 31.71484375 C59.44020736 31.29787439 64.10179565 29.91736162 68.9375 28.5 C70.80997463 28.19253745 72.68537147 27.90263812 74.5625 27.625 C76.68988837 27.26379548 78.81488138 26.88825274 80.9375 26.5 C82.55978516 26.20609375 82.55978516 26.20609375 84.21484375 25.90625 C96.16881737 23.06345009 101.81913404 14.83663414 108.6875 5.3125 C111.09309773 2.12623954 111.7066015 1.57696617 115.6875 0.25 C118.9375 0.5 118.9375 0.5 120.9375 1.5 C122.54231231 4.70962462 121.70757475 7.05961975 120.9375 10.5 C119.50251452 12.81476825 118.15666564 14.74331122 116.4375 16.8125 C115.98536133 17.37300049 115.53322266 17.93350098 115.06738281 18.51098633 C114.14155459 19.64915898 113.2083182 20.78134779 112.26757812 21.90722656 C111.08210708 23.3268325 109.92200809 24.76753847 108.765625 26.2109375 C96.47353707 40.85977913 76.17038911 52.78277776 56.9375 54.5 C53.93372602 54.61251922 50.93731137 54.71887036 47.9375 54.5 C46.27816852 52.84066852 46.89670748 50.65118439 46.875 48.375 C46.49185081 44.06040691 45.97772089 41.81385663 42.6875 38.9375 C41.12293582 37.76616853 39.53692593 36.62326096 37.9375 35.5 C36.41797631 34.32281959 34.89871339 33.1452804 33.38476562 31.9609375 C31.16897268 30.23489568 28.93208933 28.53724063 26.69580078 26.83789062 C23.68560567 24.54743392 20.68668217 22.2423458 17.6875 19.9375 C17.12651611 19.50783936 16.56553223 19.07817871 15.98754883 18.63549805 C12.05129771 15.61379771 12.05129771 15.61379771 10.9375 14.5 C8.47940002 14.2499227 8.47940002 14.2499227 5.9375 14.5 C5.2775 15.16 4.6175 15.82 3.9375 16.5 C0.93002622 16.83955349 -1.16142278 17.05613536 -4.0625 16.5 C-7.05347304 13.95767292 -7.90452557 12.3425303 -8.625 8.5 C-7.67869511 3.45304059 -5.07525701 0.82861339 0 0 Z " fill="#F4F3E7" transform="translate(130.0625,163.5)"/>
<path d="M0 0 C2.10353495 -0.0810206 4.20795952 -0.13919907 6.3125 -0.1875 C7.48425781 -0.22230469 8.65601563 -0.25710937 9.86328125 -0.29296875 C13 0 13 0 14.84375 1.1875 C16.31712754 3.49711885 16.73234618 5.4915889 17.1875 8.1875 C17.34605469 9.08855469 17.50460938 9.98960938 17.66796875 10.91796875 C17.83232422 11.94857422 17.83232422 11.94857422 18 13 C18.99 13 19.98 13 21 13 C21 12.34 21 11.68 21 11 C24.63 10.67 28.26 10.34 32 10 C34.30365137 13.02354243 35.87022451 15.29344454 36.5625 19.0625 C35.78511449 23.12217989 34.29416492 24.56518245 31 27 C26.85775694 27.57991403 25.51824511 27.34549674 22 25 C22 24.34 22 23.68 22 23 C21.34 23 20.68 23 20 23 C20 22.34 20 21.68 20 21 C19.01 21 18.02 21 17 21 C17 20.34 17 19.68 17 19 C15.35 19.33 13.7 19.66 12 20 C11.67 23.96 11.34 27.92 11 32 C12.485 32.495 12.485 32.495 14 33 C14.33 33.99 14.66 34.98 15 36 C13.33333333 37.66666667 11.66666667 39.33333333 10 41 C9.54625 41.598125 9.0925 42.19625 8.625 42.8125 C5.90467909 44.80042682 3.2567509 44.22460351 0 44 C-1.66821323 43.67449498 -3.33499557 43.34153937 -5 43 C-5.8971875 43.07992187 -6.794375 43.15984375 -7.71875 43.2421875 C-11.99110551 42.92684697 -14.56711817 41.05814419 -17.9375 38.625 C-19.2523476 37.71187003 -20.56746008 36.79912137 -21.8828125 35.88671875 C-22.55602539 35.41282715 -23.22923828 34.93893555 -23.92285156 34.45068359 C-27.3491892 32.05772424 -30.8319392 29.75052286 -34.3125 27.4375 C-34.95243896 27.00840332 -35.59237793 26.57930664 -36.25170898 26.13720703 C-42.86558707 21.71239783 -47.51214819 21.15647801 -55.34082031 22.62792969 C-59.11656521 23.4930144 -62.87114459 24.41947317 -66.625 25.375 C-67.92164533 25.69624096 -69.21851953 26.01655957 -70.515625 26.3359375 C-75.28687823 27.52134203 -80.04090783 28.72137722 -84.76245117 30.09301758 C-87.55014042 30.87397418 -89.82174854 31.21474546 -92.6875 31.3125 C-96.34030845 31.63664 -96.80197953 31.80197953 -99.5625 34.5625 C-100.036875 35.366875 -100.51125 36.17125 -101 37 C-105.875 36.125 -105.875 36.125 -107 35 C-107.39050556 31.01684324 -107.26886101 28.55162106 -105.50292969 24.9284668 C-102.20512012 21.06997814 -99.46444607 20.43191387 -94.640625 19.33203125 C-93.40756622 19.02249763 -93.40756622 19.02249763 -92.14959717 18.70671082 C-89.52126365 18.05322934 -86.88628066 17.43304288 -84.25 16.8125 C-82.52423098 16.38551396 -80.79896358 15.95649509 -79.07421875 15.52539062 C-46.50299176 7.4762639 -46.50299176 7.4762639 -40.97045898 9.8828125 C-40.31891846 10.29273437 -39.66737793 10.70265625 -38.99609375 11.125 C-38.26100586 11.58060303 -37.52591797 12.03620605 -36.76855469 12.50561523 C-35.99930664 12.99876221 -35.23005859 13.49190918 -34.4375 14 C-33.64118164 14.49894775 -32.84486328 14.99789551 -32.02441406 15.51196289 C-24.5046424 20.2471118 -17.08847141 25.13756959 -9.80859375 30.234375 C-7.24110197 32.24196929 -7.24110197 32.24196929 -4.8125 31.8125 C-4.214375 31.544375 -3.61625 31.27625 -3 31 C-2.01 30.67 -1.02 30.34 0 30 C-0.14019692 27.18711295 -0.28687955 24.37483115 -0.4375 21.5625 C-0.47681641 20.76005859 -0.51613281 19.95761719 -0.55664062 19.13085938 C-0.4054296 15.24760439 -0.4054296 15.24760439 -2 12 C-2.07205511 10.31391034 -2.08386068 8.62499341 -2.0625 6.9375 C-2.05347656 6.01839844 -2.04445313 5.09929687 -2.03515625 4.15234375 C-2.02355469 3.44207031 -2.01195312 2.73179688 -2 2 C-1.34 2 -0.68 2 0 2 C0 1.34 0 0.68 0 0 Z " fill="#F0F2F2" transform="translate(188,61)"/>
<path d="M0 0 C3.95719341 1.04458613 7.3186274 2.72572232 10.84765625 4.7421875 C11.54366943 5.13712402 12.23968262 5.53206055 12.95678711 5.93896484 C20.11220045 10.13804764 26.20371573 15.25951359 32.28515625 20.8671875 C32.94773438 21.44855469 33.6103125 22.02992187 34.29296875 22.62890625 C48.37345126 35.62879359 58.27491611 55.14559246 60.69921875 74.10546875 C60.8464422 78.7296235 60.8464422 78.7296235 60.28515625 80.8671875 C57.28515625 82.8671875 57.28515625 82.8671875 54.59765625 82.4921875 C53.83453125 82.2859375 53.07140625 82.0796875 52.28515625 81.8671875 C51.29515625 78.8971875 50.30515625 75.9271875 49.28515625 72.8671875 C48.36734375 73.72441406 47.44953125 74.58164063 46.50390625 75.46484375 C30.74163489 90.16139992 30.74163489 90.16139992 25.6484375 94.1484375 C22.18853888 96.86755178 19.90995552 99.59325171 17.65625 103.31640625 C15.18747025 106.10872979 12.19877871 106.74084961 8.6015625 107.23828125 C0.24862521 107.4396996 0.24862521 107.4396996 -3.27734375 104.6171875 C-7.36997538 99.9998595 -8.28126875 96.51389701 -8.1640625 90.41015625 C-7.40186146 86.09543561 -5.03721553 83.58045779 -1.71484375 80.8671875 C2.21524294 78.54944407 5.77637268 78.46461754 10.28515625 78.8671875 C13.15821597 80.27179447 15.03026624 81.61229749 17.28515625 83.8671875 C21.34454419 83.65676566 23.52669053 81.05936097 26.34765625 78.3671875 C31.10688071 73.91500978 35.98782081 69.76318154 41.0703125 65.6796875 C43.31269192 63.90592393 43.31269192 63.90592393 45.28515625 61.8671875 C44.29570494 49.18100826 33.25948266 36.03780381 24.33984375 27.5703125 C16.46566888 21.04342991 7.62436879 15.73769561 -1.1328125 10.49609375 C-3.71484375 8.8671875 -3.71484375 8.8671875 -5.71484375 6.8671875 C-6.02734375 4.3671875 -6.02734375 4.3671875 -5.71484375 1.8671875 C-2.71484375 -0.1328125 -2.71484375 -0.1328125 0 0 Z " fill="#F3F5F3" transform="translate(201.71484375,40.1328125)"/>
<path d="M0 0 C0.66 0.33 1.32 0.66 2 1 C2.0231206 14.54264178 2.04091364 28.0852789 2.05181217 41.62793636 C2.05704162 47.91562024 2.06414039 54.20329066 2.07543945 60.4909668 C2.08626614 66.55337723 2.09227637 72.61577469 2.09487724 78.67819405 C2.09673189 80.99676277 2.10035325 83.31533074 2.10573006 85.63389397 C2.11293758 88.86914508 2.11399106 92.10434183 2.11352539 95.33959961 C2.11712067 96.30848114 2.12071594 97.27736267 2.12442017 98.27560425 C2.1230455 99.15205093 2.12167084 100.02849762 2.12025452 100.9315033 C2.12117631 101.69751327 2.1220981 102.46352324 2.12304783 103.25274563 C2 105 2 105 1 106 C-0.40348735 106.09860131 -1.81180477 106.13078937 -3.21875 106.1328125 C-4.49298828 106.13474609 -4.49298828 106.13474609 -5.79296875 106.13671875 C-6.68628906 106.13285156 -7.57960938 106.12898438 -8.5 106.125 C-9.39332031 106.12886719 -10.28664063 106.13273437 -11.20703125 106.13671875 C-12.05652344 106.13542969 -12.90601563 106.13414062 -13.78125 106.1328125 C-14.56564453 106.13168457 -15.35003906 106.13055664 -16.15820312 106.12939453 C-18 106 -18 106 -19 105 C-19.19618241 102.42441215 -19.32714746 99.8735662 -19.41503906 97.29345703 C-19.44570465 96.4850235 -19.47637024 95.67658997 -19.50796509 94.84365845 C-19.77810411 87.31890345 -19.93900232 79.79167248 -20.06656265 72.26327705 C-20.15396793 67.21262774 -20.27674093 62.16868287 -20.48828125 57.12158203 C-22.00627176 20.01549085 -22.00627176 20.01549085 -12.1137085 9.19381714 C-8.30943019 5.72901092 -4.40317383 2.66573514 0 0 Z " fill="#182B38" transform="translate(359,91)"/>
<path d="M0 0 C0.66 0.33 1.32 0.66 2 1 C2.0231206 14.54264178 2.04091364 28.0852789 2.05181217 41.62793636 C2.05704162 47.91562024 2.06414039 54.20329066 2.07543945 60.4909668 C2.08626614 66.55337723 2.09227637 72.61577469 2.09487724 78.67819405 C2.09673189 80.99676277 2.10035325 83.31533074 2.10573006 85.63389397 C2.11293758 88.86914508 2.11399106 92.10434183 2.11352539 95.33959961 C2.11712067 96.30848114 2.12071594 97.27736267 2.12442017 98.27560425 C2.1230455 99.15205093 2.12167084 100.02849762 2.12025452 100.9315033 C2.12117631 101.69751327 2.1220981 102.46352324 2.12304783 103.25274563 C2 105 2 105 1 106 C-0.40348735 106.09860131 -1.81180477 106.13078937 -3.21875 106.1328125 C-4.49298828 106.13474609 -4.49298828 106.13474609 -5.79296875 106.13671875 C-6.68628906 106.13285156 -7.57960938 106.12898438 -8.5 106.125 C-9.39332031 106.12886719 -10.28664063 106.13273437 -11.20703125 106.13671875 C-12.05652344 106.13542969 -12.90601563 106.13414062 -13.78125 106.1328125 C-14.56564453 106.13168457 -15.35003906 106.13055664 -16.15820312 106.12939453 C-18 106 -18 106 -19 105 C-19.16957051 102.43326585 -19.2740912 99.89192276 -19.33569336 97.32177734 C-19.35832748 96.51667221 -19.38096161 95.71156708 -19.40428162 94.88206482 C-19.60243727 87.40501825 -19.71718312 79.92623148 -19.80750179 72.44717979 C-19.86908478 67.42709832 -19.95711334 62.41074735 -20.11108398 57.39257812 C-20.25949839 52.5345306 -20.33699981 47.67986166 -20.36721992 42.8196907 C-20.39034931 40.97833016 -20.43759816 39.13708989 -20.51078606 37.29703903 C-20.8697307 27.83209957 -20.60520298 20.87040442 -14.13719273 13.52256203 C-11.74727084 11.07116848 -9.28214499 8.7466121 -6.7025013 6.49620438 C-4.35628667 4.43428725 -2.1857642 2.23003404 0 0 Z " fill="#182B38" transform="translate(836,91)"/>
<path d="M0 0 C0.0231205 13.67302562 0.04091359 27.34604664 0.05181217 41.01908779 C0.05704164 47.36730576 0.06414044 53.7155104 0.07543945 60.0637207 C0.08626606 66.18448582 0.09227635 72.30523809 0.09487724 78.42601204 C0.0967319 80.76690943 0.10035329 83.10780609 0.10573006 85.44869804 C0.11293748 88.71508202 0.11399107 91.98141215 0.11352539 95.24780273 C0.11712067 96.226035 0.12071594 97.20426727 0.12442017 98.21214294 C0.1230455 99.09700378 0.12167084 99.98186462 0.12025452 100.89353943 C0.12117631 101.66692374 0.1220981 102.44030806 0.12304783 103.23712826 C0 105 0 105 -1 106 C-2.41570123 106.08651611 -3.835595 106.10704904 -5.25390625 106.09765625 C-6.10791016 106.09443359 -6.96191406 106.09121094 -7.84179688 106.08789062 C-8.73962891 106.07951172 -9.63746094 106.07113281 -10.5625 106.0625 C-11.46419922 106.05798828 -12.36589844 106.05347656 -13.29492188 106.04882812 C-15.53001314 106.03700225 -17.76497437 106.0205222 -20 106 C-20.44350326 94.98641509 -20.7794101 83.97500598 -20.98443127 72.95425701 C-21.08292844 67.8341808 -21.2160397 62.72027992 -21.43334961 57.60375977 C-22.99156623 19.97187719 -22.99156623 19.97187719 -13.16706848 9.15522766 C-3.14952788 0 -3.14952788 0 0 0 Z " fill="#192E3B" transform="translate(1108,91)"/>
<path d="M0 0 C0.33 0.33 0.66 0.66 1 1 C1.66 0.34 2.32 -0.32 3 -1 C5 -0.875 5 -0.875 7 0 C8.25 2.0625 8.25 2.0625 9 4 C9.99 3.67 10.98 3.34 12 3 C13.5625 4.25 13.5625 4.25 15 6 C14.69682426 7.34051235 14.35671785 8.67273165 14 10 C13.88444188 11.85161729 13.82512025 13.70732319 13.8125 15.5625 C13.79832031 16.51253906 13.78414062 17.46257813 13.76953125 18.44140625 C13.81641112 21.24225243 13.81641112 21.24225243 16 24 C20.29358153 23.53160929 24.42344643 22.94330484 28.625 21.9375 C32.15135645 21.1124426 35.36159204 20.81341498 39 21 C39.5878125 22.36125 39.5878125 22.36125 40.1875 23.75 C42.22377177 27.40124593 43.31883158 29.00603377 47 31 C53.24814988 31.84898525 58.65338914 31.60896233 64 28 C66.20035435 26.11398199 67.35935366 24.46096951 69 22 C68.44271087 25.34373475 67.64826111 28.03312999 66 31 C67.98 30.67 69.96 30.34 72 30 C72.22786458 32.05078125 72.45572917 34.1015625 72.68359375 36.15234375 C72.81886614 38.01140229 72.81886614 38.01140229 74 39 C74.18023553 41.80694683 74.27807437 44.56586827 74.3125 47.375 C74.35600586 48.54675781 74.35600586 48.54675781 74.40039062 49.7421875 C74.46390872 55.44904439 74.46390872 55.44904439 72.23046875 58.1015625 C69.51956651 59.19351962 68.66919045 59.1359341 66 58 C64.3838158 57.07606253 62.80378849 56.08790389 61.25 55.0625 C56.46745199 51.94902915 51.65599494 48.89228695 46.8125 45.875 C45.50647901 45.05994616 44.20048882 44.24484295 42.89453125 43.4296875 C42.25080566 43.03749023 41.60708008 42.64529297 40.94384766 42.24121094 C39 41 39 41 37.08349609 39.54785156 C33.35053153 36.83450034 30.85182526 35.63865815 26.18359375 36.046875 C24.44952675 36.32877256 22.72115768 36.64776308 21 37 C20.12746582 37.16177734 19.25493164 37.32355469 18.35595703 37.49023438 C15.57973349 38.03129877 12.82241756 38.63131196 10.0625 39.25 C9.07483643 39.46672363 8.08717285 39.68344727 7.06958008 39.90673828 C-0.42459432 41.57771633 -7.8500742 43.46530515 -15.23608398 45.56347656 C-20.79072884 47.10463558 -20.79072884 47.10463558 -23 46 C-19.00857567 43.2180982 -15.77606367 42.61911937 -11 42 C-10.01 41.34 -9.02 40.68 -8 40 C-7.58333333 37.5 -7.58333333 37.5 -8 35 C-8.66 34.34 -9.32 33.68 -10 33 C-9.030625 32.690625 -8.06125 32.38125 -7.0625 32.0625 C-3.8564737 30.39329005 -3.8564737 30.39329005 -3.44921875 27.90234375 C-3.31829906 26.32360627 -3.2348018 24.74008982 -3.203125 23.15625 C-3 21 -3 21 -1 18 C1.125 16.8125 1.125 16.8125 3 16 C2.814375 14.906875 2.62875 13.81375 2.4375 12.6875 C2 9 2 9 3 6 C2.29875 6.226875 1.5975 6.45375 0.875 6.6875 C-2.87700275 7.09532639 -4.79431057 5.86377293 -8 4 C-7.1875 2.0625 -7.1875 2.0625 -6 0 C-3 -1 -3 -1 0 0 Z " fill="#1D333F" transform="translate(114,35)"/>
<path d="M0 0 C1.05791748 -0.01595215 1.05791748 -0.01595215 2.13720703 -0.03222656 C8.72322199 0.14726321 14.01552403 2.51552403 18.625 7.125 C20.80319158 12.20744702 20.93962618 17.17214185 20.125 22.625 C17.61517703 27.62319447 14.49813329 30.83395557 9.125 32.625 C4.54130019 33.20161192 0.0756198 33.63769112 -4.1171875 31.4609375 C-7.83452946 28.45312969 -9.20269479 26.43772145 -9.875 21.625 C-10.42438232 21.75140869 -10.97376465 21.87781738 -11.53979492 22.00805664 C-14.04511536 22.5783241 -16.55363919 23.13302529 -19.0625 23.6875 C-19.92681641 23.88666016 -20.79113281 24.08582031 -21.68164062 24.29101562 C-30.12066987 26.13402201 -30.12066987 26.13402201 -33.875 24.625 C-36.07757572 21.32113642 -36.19749903 20.05682123 -36.25 16.1875 C-36.29253906 14.76630859 -36.29253906 14.76630859 -36.3359375 13.31640625 C-35.71084183 9.66648325 -34.90674624 8.78080758 -31.875 6.625 C-28.57144012 5.25574621 -25.20257949 4.29509919 -21.75 3.375 C-20.28796143 2.98368896 -20.28796143 2.98368896 -18.79638672 2.58447266 C-12.51524276 1.01699851 -6.47699245 0.04696476 0 0 Z " fill="#F7F9F9" transform="translate(162.875,34.375)"/>
<path d="M0 0 C0.66 0.33 1.32 0.66 2 1 C3.69253706 0.90822399 5.38390086 0.79418271 7.07421875 0.66796875 C13.71582681 0.61928454 16.95672827 3.0502359 21.8125 7.3125 C22.58239258 7.94897461 23.35228516 8.58544922 24.14550781 9.24121094 C25.70846917 10.53364731 27.26316149 11.83615403 28.80908203 13.14892578 C31.89766609 15.75842481 35.06543006 18.2593105 38.25 20.75 C38.80163818 21.18586426 39.35327637 21.62172852 39.92163086 22.07080078 C46.11717353 26.94035009 52.54764766 31.47943096 59 36 C59.33 35.01 59.66 34.02 60 33 C63.09173752 31.45413124 65.59429552 31.70640479 69 32 C71.4375 33.5625 71.4375 33.5625 73 36 C73.55802097 39.90614682 73.58392818 42.05111671 71.5 45.4375 C67.86353539 47.71029038 65.24217465 47.28281164 61 47 C60.67 46.34 60.34 45.68 60 45 C58.783125 45.20625 57.56625 45.4125 56.3125 45.625 C49.3824637 45.5819563 44.95391844 40.84309845 39.93505859 36.60498047 C36.32890949 33.61396051 32.58869593 30.79294184 28.875 27.9375 C20.50034619 21.4745757 20.50034619 21.4745757 16.6171875 18.10546875 C15.67101562 17.28691406 14.72484375 16.46835938 13.75 15.625 C12.96109375 14.91601562 12.1721875 14.20703125 11.359375 13.4765625 C8.36572201 11.60305119 6.4711191 11.6068622 3 12 C2.34 12.495 1.68 12.99 1 13.5 C-1 15 -1 15 -4 15.4375 C-7 15 -7 15 -9.375 13.5 C-11.82483134 9.73102871 -11.5659239 7.45665069 -11 3 C-8.04275482 -0.78527383 -4.52565279 -0.33523354 0 0 Z " fill="#F0F1EA" transform="translate(124,134)"/>
<path d="M0 0 C1.32 0.33 2.64 0.66 4 1 C3.67 2.65 3.34 4.3 3 6 C1.68 6.33 0.36 6.66 -1 7 C-0.01 8.485 -0.01 8.485 1 10 C0.360625 10.12375 -0.27875 10.2475 -0.9375 10.375 C-1.618125 10.58125 -2.29875 10.7875 -3 11 C-3.33 11.66 -3.66 12.32 -4 13 C-4.66 13 -5.32 13 -6 13 C-5.21625 13.12375 -4.4325 13.2475 -3.625 13.375 C-1 14 -1 14 1 16 C0.34 16.33 -0.32 16.66 -1 17 C-1.65555119 19.52733235 -1.65555119 19.52733235 -2 22 C-3.093125 21.979375 -4.18625 21.95875 -5.3125 21.9375 C-8.94384191 21.81455548 -8.94384191 21.81455548 -12 23 C-9.05270463 24.15811388 -9.05270463 24.15811388 -6 24 C-5.34 25.98 -4.68 27.96 -4 30 C-3.01 30 -2.02 30 -1 30 C-0.690625 29.030625 -0.38125 28.06125 -0.0625 27.0625 C1 24 1 24 2 23 C8.87592271 22.44755858 13.45322565 25.19764599 19 29 C23.77492883 33.35860941 27.76529633 37.84052938 28.140625 44.4921875 C28.18348107 47.01355289 28.20019042 49.48598076 28 52 C27 53 27 53 23.9375 53.0625 C22.968125 53.041875 21.99875 53.02125 21 53 C20.65388672 51.91332031 20.65388672 51.91332031 20.30078125 50.8046875 C17.85147786 43.54390669 15.8069723 38.40004776 9.125 34.1875 C5.73173284 32.89805848 2.60392648 32.36039265 -1 32 C-0.01 32.99 0.98 33.98 2 35 C1.67 35.66 1.34 36.32 1 37 C0.38253906 36.55269531 -0.23492187 36.10539062 -0.87109375 35.64453125 C-5.14186064 32.59584073 -9.29708066 29.77748913 -14 27.4375 C-17.21552564 25.72217558 -17.85411675 25.30392345 -19.5 21.875 C-19.7475 20.451875 -19.7475 20.451875 -20 19 C-20.33 18.01 -20.66 17.02 -21 16 C-21.66 15.67 -22.32 15.34 -23 15 C-20.66666667 12.66666667 -18.33333333 10.33333333 -16 8 C-16 8.66 -16 9.32 -16 10 C-14.35 10 -12.7 10 -11 10 C-10.67 9.34 -10.34 8.68 -10 8 C-9.34 7.34 -8.68 6.68 -8 6 C-6.68 6 -5.36 6 -4 6 C-4 5.34 -4 4.68 -4 4 C-3.34 4 -2.68 4 -2 4 C-2 3.34 -2 2.68 -2 2 C-1.34 2 -0.68 2 0 2 C0 1.34 0 0.68 0 0 Z " fill="#2C444E" transform="translate(225,18)"/>
<path d="M0 0 C5.43569801 2.45582576 9.11917382 5.91412889 11.81640625 11.30859375 C11.93786618 13.13896662 11.9918381 14.97423508 12.00390625 16.80859375 C12.01808594 17.78828125 12.03226563 18.76796875 12.046875 19.77734375 C11.81640625 22.30859375 11.81640625 22.30859375 9.81640625 24.30859375 C-0.507942 25.26455192 -10.6609843 22.09861766 -19.18359375 16.30859375 C-21.18359375 14.30859375 -21.18359375 14.30859375 -21.62109375 10.99609375 C-21.06980029 6.34947742 -19.78452945 5.18934231 -16.18359375 2.30859375 C-15.44109375 1.71046875 -14.69859375 1.11234375 -13.93359375 0.49609375 C-9.28975715 -1.50919933 -4.82314625 -1.52718584 0 0 Z " fill="#F2F0E2" transform="translate(149.18359375,194.69140625)"/>
<path d="M0 0 C2.625 0.4375 2.625 0.4375 4.5703125 2.53125 C6.3919678 5.10788791 7.8343652 7.66669207 9.21142578 10.50024414 C14.34417961 21.03322561 21.52591524 29.56832815 29.9609375 37.63671875 C32.625 40.4375 32.625 40.4375 33.125 43.6875 C32.625 46.4375 32.625 46.4375 30.625 48.4375 C27.43006343 48.95559782 26.00142619 48.67524285 23.25 46.9375 C19.78065996 43.63336663 16.70564431 40.10218313 13.625 36.4375 C12.696875 35.41076172 12.696875 35.41076172 11.75 34.36328125 C7.01445237 28.89257805 3.5208369 22.9799199 0.125 16.625 C-0.32077393 15.8002417 -0.76654785 14.9754834 -1.22583008 14.12573242 C-1.63599365 13.33529541 -2.04615723 12.5448584 -2.46875 11.73046875 C-2.83677734 11.0243042 -3.20480469 10.31813965 -3.58398438 9.59057617 C-4.52235648 7.0364084 -4.654833 5.13872796 -4.375 2.4375 C-2.375 0.4375 -2.375 0.4375 0 0 Z " fill="#EFEFE4" transform="translate(83.375,153.5625)"/>
<path d="M0 0 C6.93 0 13.86 0 21 0 C21 6.6 21 13.2 21 20 C14.07 20 7.14 20 0 20 C0 13.4 0 6.8 0 0 Z " fill="#172A36" transform="translate(817,61)"/>
<path d="M0 0 C6.93 0 13.86 0 21 0 C21 6.6 21 13.2 21 20 C14.07 20 7.14 20 0 20 C0 13.4 0 6.8 0 0 Z " fill="#172A37" transform="translate(340,61)"/>
<path d="M0 0 C6.6 0 13.2 0 20 0 C20 6.6 20 13.2 20 20 C13.4 20 6.8 20 0 20 C0 13.4 0 6.8 0 0 Z " fill="#182D3A" transform="translate(1088,61)"/>
<path d="M0 0 C2.10353495 -0.0810206 4.20795952 -0.13919907 6.3125 -0.1875 C7.48425781 -0.22230469 8.65601563 -0.25710937 9.86328125 -0.29296875 C13 0 13 0 14.84375 1.1875 C16.31712754 3.49711885 16.73234618 5.4915889 17.1875 8.1875 C17.34605469 9.08855469 17.50460938 9.98960938 17.66796875 10.91796875 C17.77753906 11.60503906 17.88710937 12.29210937 18 13 C18.99 13 19.98 13 21 13 C21 12.34 21 11.68 21 11 C24.63 10.67 28.26 10.34 32 10 C34.30365137 13.02354243 35.87022451 15.29344454 36.5625 19.0625 C35.78511449 23.12217989 34.29416492 24.56518245 31 27 C26.85775694 27.57991403 25.51824511 27.34549674 22 25 C22 24.34 22 23.68 22 23 C21.34 23 20.68 23 20 23 C20 22.34 20 21.68 20 21 C19.01 21 18.02 21 17 21 C17 20.34 17 19.68 17 19 C15.35 19.33 13.7 19.66 12 20 C11.67 23.96 11.34 27.92 11 32 C11.99 32.33 12.98 32.66 14 33 C14.33 33.99 14.66 34.98 15 36 C13.68 37.32 12.36 38.64 11 40 C10.04703697 34.36608256 9.81688812 28.89644523 9.8125 23.1875 C9.80025391 22.32962891 9.78800781 21.47175781 9.77539062 20.58789062 C9.77249023 19.3590918 9.77249023 19.3590918 9.76953125 18.10546875 C9.76542236 17.36449951 9.76131348 16.62353027 9.75708008 15.86010742 C10 14 10 14 12 12 C12.35513379 10.09178939 12.35513379 10.09178939 12.3125 8 C12.32925781 7.29875 12.34601563 6.5975 12.36328125 5.875 C12.24339844 5.25625 12.12351563 4.6375 12 4 C8.28986601 1.52657734 6.38939738 1.61496514 2 2 C-0.40083438 3.35885116 -0.40083438 3.35885116 -2 5 C-2 4.01 -2 3.02 -2 2 C-1.34 2 -0.68 2 0 2 C0 1.34 0 0.68 0 0 Z " fill="#2D424E" transform="translate(188,61)"/>
<path d="M0 0 C2 2 2 2 2.265625 4.0234375 C2.26046875 4.79945313 2.2553125 5.57546875 2.25 6.375 C2.25515625 7.14585937 2.2603125 7.91671875 2.265625 8.7109375 C1.95539643 11.38437783 1.61349284 12.82728522 0 15 C-2.828125 16.265625 -2.828125 16.265625 -6.25 17.25 C-7.92835938 17.75273437 -7.92835938 17.75273437 -9.640625 18.265625 C-12.92646024 18.98392387 -15.65282672 19.29731339 -19 19 C-22.05661905 16.26513033 -22.93974578 14.79836847 -23.25 10.6875 C-23.1675 9.800625 -23.085 8.91375 -23 8 C-22.34 8 -21.68 8 -21 8 C-20.7525 7.38125 -20.505 6.7625 -20.25 6.125 C-18.45389258 3.07161739 -16.18199642 2.34815167 -12.8515625 1.3671875 C-8.52140199 0.40999413 -4.46106629 -0.43522598 0 0 Z " fill="#EDEFEC" transform="translate(259,136)"/>
<path d="M0 0 C4.70588235 0.70588235 4.70588235 0.70588235 6 2 C7.11149197 8.96441172 5.72075827 13.92928869 1.8359375 19.73828125 C-2.93871396 25.62024549 -8.76068338 28.98248553 -16 31 C-20.37209302 30.62790698 -20.37209302 30.62790698 -22 29 C-22.375 26.625 -22.375 26.625 -22 24 C-20 22.5 -20 22.5 -17 21 C-15.5985224 20.11302278 -14.20294725 19.21667062 -12.8125 18.3125 C-9.24483776 16 -9.24483776 16 -7 16 C-5.97979446 13.45634852 -4.9650918 10.91095117 -3.96484375 8.359375 C-3.62582031 7.49828125 -3.28679687 6.6371875 -2.9375 5.75 C-2.42509766 4.44289062 -2.42509766 4.44289062 -1.90234375 3.109375 C-1 1 -1 1 0 0 Z " fill="#ECECE2" transform="translate(247,185)"/>
<path d="M0 0 C3.29714793 0.32971479 4.6226839 0.6226839 7 3 C7.48964337 4.99121637 7.97835575 6.9826811 8.45703125 8.9765625 C9.98715145 14.67873708 13.03579756 16.99798582 17.92578125 19.86328125 C20.58216663 21.31904047 23.26385376 22.70033054 26 24 C26.125 26.375 26.125 26.375 26 29 C25.34 29.66 24.68 30.32 24 31 C16.19759708 31 10.20910992 27.62785188 4.359375 22.5859375 C-0.18700044 17.68352061 -1.79720753 11.55518509 -2.3125 5.0625 C-2 2 -2 2 0 0 Z " fill="#EAE9DC" transform="translate(85,185)"/>
<path d="M0 0 C0.66 0.33 1.32 0.66 2 1 C2.375 3.25 2.375 3.25 2 6 C-1.69688898 9.04993341 -5.79937229 10.94489032 -10.16796875 12.875 C-14.38461054 15.46432374 -15.49982976 19.0569917 -16.625 23.6875 C-17.91212654 28.91212654 -17.91212654 28.91212654 -19 30 C-21.4375 30.1875 -21.4375 30.1875 -24 30 C-26.4073459 27.5926541 -26.37394558 26.81943298 -26.5 23.5 C-26.36211714 16.18160218 -22.68010564 10.75254093 -17.6875 5.625 C-12.08282217 2.23612503 -6.73768596 -0.82166902 0 0 Z " fill="#EDEFEF" transform="translate(109,41)"/>
<path d="M0 0 C7.21601452 0.63129167 13.49832165 5.07482814 18.27734375 10.34375 C23.10231771 16.47308295 23.82954527 21.56174255 23.21484375 29.28125 C22.21484375 30.28125 22.21484375 30.28125 19.15234375 30.34375 C18.18296875 30.323125 17.21359375 30.3025 16.21484375 30.28125 C15.98410156 29.55679688 15.75335938 28.83234375 15.515625 28.0859375 C12.59175926 19.41835132 9.78854932 14.4828993 1.46484375 10.21875 C0.500625 9.77402344 -0.46359375 9.32929687 -1.45703125 8.87109375 C-3.78515625 7.28125 -3.78515625 7.28125 -4.73828125 4.72265625 C-4.75375 3.91699219 -4.76921875 3.11132812 -4.78515625 2.28125 C-2.78515625 0.28125 -2.78515625 0.28125 0 0 Z " fill="#EFF1F1" transform="translate(229.78515625,40.71875)"/>
<path d="M0 0 C0.66 0.33 1.32 0.66 2 1 C1.4740625 1.804375 1.4740625 1.804375 0.9375 2.625 C-0.28924249 5.73274763 0.27143569 7.79431703 1 11 C0.195625 11.45375 -0.60875 11.9075 -1.4375 12.375 C-4.08856572 13.74725665 -4.08856572 13.74725665 -5 16 C-5.12615827 17.47745349 -5.22742028 18.95711283 -5.3125 20.4375 C-5.75969157 24.71677935 -5.75969157 24.71677935 -7.75 27.0625 C-10.46701754 28.19459064 -12.090177 28.52227592 -15 28 C-16.8125 26.1875 -16.8125 26.1875 -18 24 C-18 23.01 -18 22.02 -18 21 C-19.32 20.67 -20.64 20.34 -22 20 C-22.66 20.99 -23.32 21.98 -24 23 C-24 19.82230191 -23.70977382 17.72216388 -21.43359375 15.40625 C-16.92453379 11.9472451 -12.1431195 9.38787691 -7 7 C-7 5.02 -7 3.04 -7 1 C-5.5459375 1.0309375 -5.5459375 1.0309375 -4.0625 1.0625 C-1.12534105 1.35618499 -1.12534105 1.35618499 0 0 Z " fill="#2C444E" transform="translate(117,40)"/>
<path d="M0 0 C9.36 1.52 9.36 1.52 13 6 C13.99 6.66 14.98 7.32 16 8 C15.195625 8.9075 14.39125 9.815 13.5625 10.75 C11.58857329 13.10309908 10.36122533 14.86938046 10 18 C9.34 18 8.68 18 8 18 C8.66 18.66 9.32 19.32 10 20 C9.51917969 20.39832031 9.03835937 20.79664062 8.54296875 21.20703125 C6.62608175 23.43450247 6.52258357 24.78834669 6.3125 27.6875 C6.24675781 28.49574219 6.18101562 29.30398437 6.11328125 30.13671875 C6.07589844 30.75160156 6.03851563 31.36648437 6 32 C5.67 32 5.34 32 5 32 C4.96261719 31.26394531 4.92523438 30.52789062 4.88671875 29.76953125 C4.60613767 22.27393097 4.60613767 22.27393097 1 16 C-5.45648809 11.02170787 -13.15562446 11.22034763 -21 11 C-21 9.35 -21 7.7 -21 6 C-20.01 5.67 -19.02 5.34 -18 5 C-17.34 6.65 -16.68 8.3 -16 10 C-15.00419922 9.98259766 -15.00419922 9.98259766 -13.98828125 9.96484375 C-6.53437239 9.88867242 -6.53437239 9.88867242 -3 10.625 C-2.34 10.74875 -1.68 10.8725 -1 11 C-0.34 10.34 0.32 9.68 1 9 C0.34 9 -0.32 9 -1 9 C-0.835 8.071875 -0.67 7.14375 -0.5 6.1875 C0.07748388 3.04378647 0.07748388 3.04378647 0 0 Z " fill="#2E4651" transform="translate(178,24)"/>
<path d="M0 0 C0.99 0.33 1.98 0.66 3 1 C3 1.66 3 2.32 3 3 C3.99 2.67 4.98 2.34 6 2 C6.66 2.66 7.32 3.32 8 4 C8.33 4 8.66 4 9 4 C9.66 3.34 10.32 2.68 11 2 C11.66 3.98 12.32 5.96 13 8 C12.01 8.33 11.02 8.66 10 9 C10.33 9.99 10.66 10.98 11 12 C9.35 12.66 7.7 13.32 6 14 C6 14.99 6 15.98 6 17 C8.31 17 10.62 17 13 17 C13 17.99 13 18.98 13 20 C13.66 20.33 14.32 20.66 15 21 C14.67 21.99 14.34 22.98 14 24 C14.99 24.33 15.98 24.66 17 25 C17.33 25.99 17.66 26.98 18 28 C14.45826225 28 13.86187185 27.35548192 11.1875 25.1875 C5.93894779 21.12874756 1.85349684 18.39080028 -5 19 C-5.99 19.33 -6.98 19.66 -8 20 C-8.33 19.01 -8.66 18.02 -9 17 C-8.34 17 -7.68 17 -7 17 C-6.67 16.34 -6.34 15.68 -6 15 C-5.67 15.33 -5.34 15.66 -5 16 C-3.00041636 16.04080783 -0.99954746 16.04254356 1 16 C0.34 15.01 -0.32 14.02 -1 13 C0.98 12.67 2.96 12.34 5 12 C4.67 11.34 4.34 10.68 4 10 C3.01 10 2.02 10 1 10 C0.34 10.66 -0.32 11.32 -1 12 C-1 11.34 -1 10.68 -1 10 C-1.99 10 -2.98 10 -4 10 C-4.33 8.02 -4.66 6.04 -5 4 C-3.68 4.33 -2.36 4.66 -1 5 C-0.67 3.35 -0.34 1.7 0 0 Z M-5 12 C-4.67 12.99 -4.34 13.98 -4 15 C-4.66 15 -5.32 15 -6 15 C-5.67 14.01 -5.34 13.02 -5 12 Z " fill="#2E454F" transform="translate(232,23)"/>
<path d="M0 0 C0.99 0.66 1.98 1.32 3 2 C-1.11937256 17.51006184 -1.11937256 17.51006184 -9 22.3125 C-11.3670085 23.6295093 -13.71581709 24.87262516 -16.1875 25.98046875 C-18.33149565 27.00622624 -18.33149565 27.00622624 -20 30 C-20.125 24.25 -20.125 24.25 -19 22 C-19.66 21.67 -20.32 21.34 -21 21 C-20.38253906 20.53851563 -19.76507813 20.07703125 -19.12890625 19.6015625 C-11.78744892 13.9474112 -5.16486782 7.74730173 0 0 Z " fill="#1C2E3B" transform="translate(244,182)"/>
<path d="M0 0 C2.875 1.5625 2.875 1.5625 5 4 C5.51921468 7.63450273 5.37882203 10.01506272 4.0625 13.4375 C1.14811329 15.64536872 -1.2407599 15.62106803 -4.83203125 15.4453125 C-7 15 -7 15 -9.625 12.9375 C-11.42593997 9.09003735 -11.19823746 7.04405144 -10 3 C-7.07633177 -0.35680426 -4.30565927 -0.61509418 0 0 Z " fill="#EFF0E9" transform="translate(216,159)"/>
<path d="M0 0 C2.4375 1.5625 2.4375 1.5625 4 4 C4.5625 7.4375 4.5625 7.4375 4 11 C1.52942103 14.41521211 0.08849737 15.77785768 -4.0625 16.625 C-7 16 -7 16 -9.375 13.9375 C-11.40553614 10.26691544 -11.60190112 8.13807018 -11 4 C-8.11188513 -0.5054592 -5.11821063 -0.73117295 0 0 Z " fill="#EFF2F2" transform="translate(228,95)"/>
<path d="M0 0 C3.32274404 2.45594125 4.77618008 3.9256644 5.625 8 C4.77618008 12.0743356 3.32274404 13.54405875 0 16 C-3.0625 16.625 -3.0625 16.625 -6 16 C-9.16196359 13.25408425 -9.91691332 11.59199258 -10.5 7.4375 C-10 4 -10 4 -8.375 1.5625 C-5.24316508 -0.49791771 -3.68455227 -0.6767545 0 0 Z " fill="#EBECE4" transform="translate(111,155)"/>
<path d="M0 0 C2.9375 1.625 2.9375 1.625 5 4 C5.625 6.9375 5.625 6.9375 5 10 C2.51397551 13.36344489 1.08574477 14.80057749 -3.0625 15.5625 C-6 15 -6 15 -8.375 13.5 C-10.80664499 9.75900771 -10.49174842 7.42573582 -10 3 C-7.82815916 -1.08817098 -4.1986431 -0.50673279 0 0 Z " fill="#F0F3F3" transform="translate(219,73)"/>
<path d="M0 0 C6.40303191 -0.66698249 9.97575708 1.0679838 15 5 C19.29810187 8.85727091 19.56769722 12.47437722 19.921875 17.98828125 C19.94765625 18.65214844 19.9734375 19.31601563 20 20 C16.18932893 17.9061507 13.37919066 15.57073665 10.375 12.4375 C7.95998481 9.92769752 5.90893887 7.93929258 3 6 C1.875 4 1.875 4 1 2 C0.67 1.34 0.34 0.68 0 0 Z " fill="#243844" transform="translate(224,50)"/>
<path d="M0 0 C0.99 0 1.98 0 3 0 C5.1875 2.5 5.1875 2.5 7 5 C5.02 5.99 5.02 5.99 3 7 C3.99 7 4.98 7 6 7 C7.73223664 8.94348501 9.39881603 10.94720004 11 13 C11.66 13.66 12.32 14.32 13 15 C8.25 16 8.25 16 6 16 C5.34 16.99 4.68 17.98 4 19 C3.34 19 2.68 19 2 19 C2 18.34 2 17.68 2 17 C0.02 17.66 -1.96 18.32 -4 19 C-4.36923077 11.49230769 -4.36923077 11.49230769 -2.5 9 C-2.005 8.67 -1.51 8.34 -1 8 C-1.66 7.34 -2.32 6.68 -3 6 C-2.01 5.34 -1.02 4.68 0 4 C0 2.68 0 1.36 0 0 Z " fill="#243B45" transform="translate(188,36)"/>
<path d="M0 0 C2.97 0.495 2.97 0.495 6 1 C6.85297271 4.41189086 7.0420556 6.6422653 6 10 C6 10.66 6 11.32 6 12 C7.32 12.66 8.64 13.32 10 14 C8.10600285 15.75202288 6.20988262 17.50164978 4.3125 19.25 C3.78205078 19.74113281 3.25160156 20.23226562 2.70507812 20.73828125 C-6.29455853 29.02015547 -6.29455853 29.02015547 -9.1875 28.9375 C-11 28 -11 28 -13 25 C-10.69 25.33 -8.38 25.66 -6 26 C-6 25.34 -6 24.68 -6 24 C-5.01 24 -4.02 24 -3 24 C-2.87625 23.401875 -2.7525 22.80375 -2.625 22.1875 C-2 20 -2 20 0 17 C-2.31 16.67 -4.62 16.34 -7 16 C-7 15.67 -7 15.34 -7 15 C-5.329375 14.5978125 -5.329375 14.5978125 -3.625 14.1875 C0.21840951 13.34190981 0.21840951 13.34190981 2 10 C2.38464895 4.66531571 2.38464895 4.66531571 0 0 Z M4 13 C4.66 13.66 5.32 14.32 6 15 C6 14.34 6 13.68 6 13 C5.34 13 4.68 13 4 13 Z " fill="#293E4A" transform="translate(229,96)"/>
<path d="M0 0 C0.99 0.66 1.98 1.32 3 2 C2.690625 2.556875 2.38125 3.11375 2.0625 3.6875 C0.94238179 6.12540433 0.43962636 8.36224186 0 11 C-0.66 11 -1.32 11 -2 11 C-1.34 11.66 -0.68 12.32 0 13 C-0.48082031 13.39832031 -0.96164063 13.79664063 -1.45703125 14.20703125 C-3.37391825 16.43450247 -3.47741643 17.78834669 -3.6875 20.6875 C-3.75324219 21.49574219 -3.81898438 22.30398437 -3.88671875 23.13671875 C-3.92410156 23.75160156 -3.96148437 24.36648437 -4 25 C-4.33 25 -4.66 25 -5 25 C-5.03738281 24.26394531 -5.07476562 23.52789062 -5.11328125 22.76953125 C-5.47963346 17.33171511 -5.81828699 13.56506649 -9 9 C-9 7.68 -9 6.36 -9 5 C-6.03 3.35 -3.06 1.7 0 0 Z " fill="#2A434D" transform="translate(188,31)"/>
<path d="M0 0 C3 0.25 3 0.25 5 2.25 C5.3125 5.75 5.3125 5.75 5 9.25 C1.77856724 11.39762184 0.7404533 11.811068 -3 11.25 C-4.875 9.5625 -4.875 9.5625 -6 7.25 C-5.67747519 2.7346526 -4.81889451 0.40157454 0 0 Z " fill="#E7EBEB" transform="translate(105,56.75)"/>
<path d="M0 0 C0.33 0.66 0.66 1.32 1 2 C-0.34771484 2.35384766 -0.34771484 2.35384766 -1.72265625 2.71484375 C-5.39813901 4.15612364 -6.89672994 5.58350538 -9.4375 8.5625 C-10.20320313 9.45066406 -10.96890625 10.33882812 -11.7578125 11.25390625 C-14.40338496 14.49404116 -16.94325826 17.79808549 -19.39453125 21.1875 C-21.15864386 23.17910158 -22.52224897 24.06299474 -25 25 C-28.25 25.125 -28.25 25.125 -31 25 C-30.1646875 24.6596875 -30.1646875 24.6596875 -29.3125 24.3125 C-26.32038397 22.61427198 -24.38399465 20.49235804 -22 18 C-21.38898438 17.40960938 -20.77796875 16.81921875 -20.1484375 16.2109375 C-15.8109031 12.007381 -12.03139065 7.64721105 -8.4453125 2.78515625 C-5.92036585 -0.33349407 -3.82143706 -0.10056413 0 0 Z " fill="#DAE1DE" transform="translate(249,164)"/>
<path d="M0 0 C-0.33 1.65 -0.66 3.3 -1 5 C-2.11375 5.103125 -3.2275 5.20625 -4.375 5.3125 C-5.57125 5.539375 -6.7675 5.76625 -8 6 C-8.99 7.485 -8.99 7.485 -10 9 C-11.65 8.67 -13.3 8.34 -15 8 C-15.66 8.99 -16.32 9.98 -17 11 C-16.80892592 6.89190737 -16.24926782 5.27358663 -13.4375 2.1875 C-9.65369927 -0.66180273 -4.43672105 -2.21836053 0 0 Z " fill="#21343F" transform="translate(110,52)"/>
<path d="M0 0 C0.66 1.98 1.32 3.96 2 6 C2.763125 5.773125 3.52625 5.54625 4.3125 5.3125 C5.199375 5.209375 6.08625 5.10625 7 5 C8.8125 6.4375 8.8125 6.4375 10 8 C8.35 8 6.7 8 5 8 C5.99 8.99 6.98 9.98 8 11 C7.67 11.66 7.34 12.32 7 13 C6.38253906 12.55269531 5.76507813 12.10539062 5.12890625 11.64453125 C-0.40130478 7.69678548 -5.98176439 4.15448582 -12 1 C-7.61991557 -1.58464442 -4.88874887 -0.81479148 0 0 Z " fill="#3C545A" transform="translate(219,42)"/>
<path d="M0 0 C0.33 0.66 0.66 1.32 1 2 C3.01669827 3.13350534 3.01669827 3.13350534 5 4 C5 5.98 5 7.96 5 10 C1.625 10.625 1.625 10.625 -2 11 C-2.66 10.34 -3.32 9.68 -4 9 C-4 7.68 -4 6.36 -4 5 C-4.66 4.67 -5.32 4.34 -6 4 C-4.02 2.68 -2.04 1.36 0 0 Z " fill="#5F778A" transform="translate(108,117)"/>
<path d="M0 0 C0.598125 0.33 1.19625 0.66 1.8125 1 C4.05386471 2.20787988 4.05386471 2.20787988 7 2 C7.33 2.99 7.66 3.98 8 5 C6.5625 7.6875 6.5625 7.6875 5 10 C5.99 10 6.98 10 8 10 C8.33 10.99 8.66 11.98 9 13 C8.319375 12.79375 7.63875 12.5875 6.9375 12.375 C3.21166669 11.89936171 0.53007446 12.82330851 -3 14 C-3 13.01 -3 12.02 -3 11 C-2.34 10.67 -1.68 10.34 -1 10 C-0.53248212 7.64400765 -0.53248212 7.64400765 -0.375 4.9375 C-0.30023438 4.01839844 -0.22546875 3.09929687 -0.1484375 2.15234375 C-0.09945313 1.44207031 -0.05046875 0.73179688 0 0 Z " fill="#263A47" transform="translate(262,111)"/>
<path d="M0 0 C0.66 0.33 1.32 0.66 2 1 C-2.95 5.95 -7.9 10.9 -13 16 C0.86 16.495 0.86 16.495 15 17 C15 17.33 15 17.66 15 18 C5.1 18 -4.8 18 -15 18 C-15 14 -15 14 -12.98828125 11.81640625 C-12.10527344 11.07261719 -11.22226562 10.32882813 -10.3125 9.5625 C-9.40371094 8.78132812 -8.49492188 8.00015625 -7.55859375 7.1953125 C-6.71425781 6.47085938 -5.86992188 5.74640625 -5 5 C-3.28945671 3.36840486 -1.64402301 1.69882378 0 0 Z " fill="#091217" transform="translate(760,146)"/>
<path d="M0 0 C1.32 0 2.64 0 4 0 C4 7.59 4 15.18 4 23 C1 21 1 21 0.375 18.5625 C0.25125 17.716875 0.1275 16.87125 0 16 C-0.33 15.01 -0.66 14.02 -1 13 C-0.34 13 0.32 13 1 13 C1.98388172 8.8150658 1.98388172 8.8150658 1.1875 4.6875 C0.09312675 2.84902178 0.09312675 2.84902178 -2 2 C-1.34 1.34 -0.68 0.68 0 0 Z " fill="#233846" transform="translate(277,123)"/>
<path d="M0 0 C2.31 0 4.62 0 7 0 C7 1.32 7 2.64 7 4 C7.99 4.66 8.98 5.32 10 6 C9.01 6.33 8.02 6.66 7 7 C6.34 10.3 5.68 13.6 5 17 C4.67 17 4.34 17 4 17 C3.87882813 16.19175781 3.75765625 15.38351563 3.6328125 14.55078125 C3.46523437 13.48214844 3.29765625 12.41351563 3.125 11.3125 C2.96257812 10.25675781 2.80015625 9.20101562 2.6328125 8.11328125 C2.04106931 5.20205086 1.1968194 2.71044393 0 0 Z " fill="#344952" transform="translate(249,52)"/>
<path d="M0 0 C1.32 0 2.64 0 4 0 C4 0.99 4 1.98 4 3 C4.66 3.33 5.32 3.66 6 4 C5.67 4.99 5.34 5.98 5 7 C5.99 7.33 6.98 7.66 8 8 C8.33 8.99 8.66 9.98 9 11 C5.45826225 11 4.86187185 10.35548192 2.1875 8.1875 C-1.0536577 5.65328612 -4.2303929 3.6963232 -8 2 C-4.18510326 0.53273202 -1.70988378 1.56663581 2 3 C2.33 2.67 2.66 2.34 3 2 C2.01 2 1.02 2 0 2 C0 1.34 0 0.68 0 0 Z " fill="#3D535B" transform="translate(241,40)"/>
<path d="M0 0 C0.33 0.99 0.66 1.98 1 3 C0.34 3 -0.32 3 -1 3 C-0.67 2.01 -0.34 1.02 0 0 Z M4 1 C6.375 1.3125 6.375 1.3125 9 2 C9.66 2.99 10.32 3.98 11 5 C14.05429073 6.21284876 14.05429073 6.21284876 17 7 C16.67 7.66 16.34 8.32 16 9 C15.21625 8.67 14.4325 8.34 13.625 8 C8.11988152 6.48134663 2.45670699 6.18109767 -3 8 C-3.33 7.01 -3.66 6.02 -4 5 C-3.34 5 -2.68 5 -2 5 C-1.67 4.34 -1.34 3.68 -1 3 C-0.67 3.33 -0.34 3.66 0 4 C1.99958364 4.04080783 4.00045254 4.04254356 6 4 C5.34 3.01 4.68 2.02 4 1 Z " fill="#2C444C" transform="translate(227,35)"/>
<path d="M0 0 C1.32 0 2.64 0 4 0 C2.56759312 3.32997682 0.81763476 5.3992896 -1.875 7.8125 C-2.55304688 8.43769531 -3.23109375 9.06289062 -3.9296875 9.70703125 C-6 11 -6 11 -8.1328125 10.88671875 C-10 10 -10 10 -12 7 C-9.69 7.33 -7.38 7.66 -5 8 C-5 7.34 -5 6.68 -5 6 C-4.01 6 -3.02 6 -2 6 C-1.855625 5.38125 -1.71125 4.7625 -1.5625 4.125 C-1 2 -1 2 0 0 Z " fill="#354A54" transform="translate(228,114)"/>
<path d="M0 0 C0.33 0.66 0.66 1.32 1 2 C-0.33417969 2.35191406 -0.33417969 2.35191406 -1.6953125 2.7109375 C-5.38645458 4.15074469 -7.17523386 5.76161167 -9.875 8.625 C-10.65617188 9.44226563 -11.43734375 10.25953125 -12.2421875 11.1015625 C-12.82226562 11.72804687 -13.40234375 12.35453125 -14 13 C-14.66 12.67 -15.32 12.34 -16 12 C-14.54601271 10.18401175 -13.08667675 8.37230481 -11.625 6.5625 C-10.40683594 5.04849609 -10.40683594 5.04849609 -9.1640625 3.50390625 C-6.09200157 -0.05059024 -4.54391215 -0.11957664 0 0 Z " fill="#CDD4D4" transform="translate(249,164)"/>
<path d="M0 0 C1.5625 1.25 1.5625 1.25 3 3 C2.8125 5.125 2.8125 5.125 2 7 C1.01 7.495 1.01 7.495 0 8 C0 7.01 0 6.02 0 5 C-2.64 5 -5.28 5 -8 5 C-8.33 4.34 -8.66 3.68 -9 3 C-8.01 3 -7.02 3 -6 3 C-6 2.34 -6 1.68 -6 1 C-3.03 1.495 -3.03 1.495 0 2 C0 1.34 0 0.68 0 0 Z " fill="#203644" transform="translate(278,146)"/>
<path d="M0 0 C0.66 0.33 1.32 0.66 2 1 C3.54023996 1.06950541 5.08334988 1.08452357 6.625 1.0625 C7.44226563 1.05347656 8.25953125 1.04445312 9.1015625 1.03515625 C9.72804688 1.02355469 10.35453125 1.01195312 11 1 C11 1.33 11 1.66 11 2 C10.030625 2.28875 9.06125 2.5775 8.0625 2.875 C4.89335797 3.64214682 4.89335797 3.64214682 4 6 C2.35 5.67 0.7 5.34 -1 5 C-1.66 5.99 -2.32 6.98 -3 8 C-2.25 2.25 -2.25 2.25 0 0 Z " fill="#354752" transform="translate(96,55)"/>
<path d="M0 0 C0.66 0 1.32 0 2 0 C2.66 1.65 3.32 3.3 4 5 C4.67546875 4.97679687 5.3509375 4.95359375 6.046875 4.9296875 C7.38492188 4.90261719 7.38492188 4.90261719 8.75 4.875 C9.63171875 4.85179687 10.5134375 4.82859375 11.421875 4.8046875 C14.1135858 5.00860498 15.69904974 5.63448279 18 7 C17.01 7.495 17.01 7.495 16 8 C15.01 7.67 14.02 7.34 13 7 C10.60745424 6.77439324 8.21071877 6.59151405 5.8125 6.4375 C4.54019531 6.35371094 3.26789063 6.26992188 1.95703125 6.18359375 C0.98121094 6.12300781 0.00539062 6.06242187 -1 6 C-1.042721 4.33388095 -1.04063832 2.66617115 -1 1 C-0.67 0.67 -0.34 0.34 0 0 Z " fill="#566C72" transform="translate(158,29)"/>
<path d="M0 0 C2.50896686 0.45601261 2.50896686 0.45601261 5.1875 0.625 C6.08855469 0.69976562 6.98960937 0.77453125 7.91796875 0.8515625 C8.60503906 0.90054688 9.29210937 0.94953125 10 1 C6.4701306 2.93302372 4.04848324 3.26403152 0 3 C-0.66 2.67 -1.32 2.34 -2 2 C-3.37342831 1.9310528 -4.75002102 1.91532292 -6.125 1.9375 C-8.043125 1.9684375 -8.043125 1.9684375 -10 2 C-9.67 1.01 -9.34 0.02 -9 -1 C-3.375 -2.25 -3.375 -2.25 0 0 Z " fill="#304451" transform="translate(126,133)"/>
<path d="M0 0 C-0.33 0.99 -0.66 1.98 -1 3 C-1.99 2.67 -2.98 2.34 -4 2 C-10.72402241 1.49252661 -14.5055858 3.3370572 -20 7 C-20 5.68 -20 4.36 -20 3 C-12.71936912 -0.28342177 -7.93933207 -1.21108455 0 0 Z " fill="#223944" transform="translate(216,118)"/>
<path d="M0 0 C0.6875 1.8125 0.6875 1.8125 1 4 C0.505 4.474375 0.01 4.94875 -0.5 5.4375 C-0.995 5.953125 -1.49 6.46875 -2 7 C-1.835 7.825 -1.67 8.65 -1.5 9.5 C-1.335 10.325 -1.17 11.15 -1 12 C-2.4375 13.8125 -2.4375 13.8125 -4 15 C-4.2475 14.38125 -4.495 13.7625 -4.75 13.125 C-6.20628639 10.64931313 -7.37812506 10.04874998 -10 9 C-9.071875 8.566875 -8.14375 8.13375 -7.1875 7.6875 C-3.11957679 5.53389359 -1.45535272 4.36605815 0 0 Z " fill="#3B4E59" transform="translate(182,57)"/>
<path d="M0 0 C0.99 0 1.98 0 3 0 C3 0.66 3 1.32 3 2 C3.763125 1.773125 4.52625 1.54625 5.3125 1.3125 C6.199375 1.209375 7.08625 1.10625 8 1 C9.8125 2.4375 9.8125 2.4375 11 4 C9.35 4 7.7 4 6 4 C6.99 4.99 7.98 5.98 9 7 C8.67 7.66 8.34 8.32 8 9 C6.65826597 8.07456291 5.32679841 7.13422595 4 6.1875 C3.2575 5.66542969 2.515 5.14335938 1.75 4.60546875 C1.1725 4.07566406 0.595 3.54585937 0 3 C0 2.01 0 1.02 0 0 Z " fill="#354A52" transform="translate(218,46)"/>
<path d="M0 0 C-1.43561686 3.18706942 -3.20266329 5.62169105 -5.5 8.25 C-6.1084375 8.95640625 -6.716875 9.6628125 -7.34375 10.390625 C-9 12 -9 12 -11 12 C-9.50948318 7.39294801 -7.21457741 4.53603516 -4 1 C-2 0 -2 0 0 0 Z " fill="#D5DEDE" transform="translate(96,45)"/>
<path d="M0 0 C0.99 0.33 1.98 0.66 3 1 C0.03 3.97 -2.94 6.94 -6 10 C-6.33 9.01 -6.66 8.02 -7 7 C-4.69 4.69 -2.38 2.38 0 0 Z " fill="#13222C" transform="translate(356,94)"/>
<path d="M0 0 C0.33 0.99 0.66 1.98 1 3 C0.37351563 2.97679688 -0.25296875 2.95359375 -0.8984375 2.9296875 C-1.71570313 2.91164063 -2.53296875 2.89359375 -3.375 2.875 C-4.59316406 2.84019531 -4.59316406 2.84019531 -5.8359375 2.8046875 C-8.21342243 2.78629949 -8.21342243 2.78629949 -10 5 C-10.45811675 6.97235333 -10.45811675 6.97235333 -10.625 9.125 C-10.74875 10.40375 -10.8725 11.6825 -11 13 C-11.33 13 -11.66 13 -12 13 C-12.33 9.7 -12.66 6.4 -13 3 C-12.34 3 -11.68 3 -11 3 C-11 2.34 -11 1.68 -11 1 C-9.54182203 0.83197949 -8.0834516 0.66562857 -6.625 0.5 C-5.81289062 0.4071875 -5.00078125 0.314375 -4.1640625 0.21875 C-2 0 -2 0 0 0 Z " fill="#44575F" transform="translate(220,71)"/>
<path d="M0 0 C1.32 0 2.64 0 4 0 C4 0.66 4 1.32 4 2 C4.99 2.33 5.98 2.66 7 3 C7.33 4.65 7.66 6.3 8 8 C4.4213696 6.34832443 1.25179812 4.21713508 -2 2 C-1.34 1.34 -0.68 0.68 0 0 Z " fill="#354D57" transform="translate(170,83)"/>
<path d="M0 0 C-0.61277612 2.96175123 -1.25372522 4.38058783 -3 7 C-3.66 7 -4.32 7 -5 7 C-5 6.34 -5 5.68 -5 5 C-5.99 4.67 -6.98 4.34 -8 4 C-4.5 0 -4.5 0 0 0 Z " fill="#1B343E" transform="translate(195,48)"/>
<path d="M0 0 C1.7074998 1.28062485 3.37373596 2.61767557 5 4 C5 4.66 5 5.32 5 6 C5.99 6 6.98 6 8 6 C8.33 7.65 8.66 9.3 9 11 C7.72390677 10.09066991 6.45434447 9.17217147 5.1875 8.25 C4.47980469 7.73953125 3.77210938 7.2290625 3.04296875 6.703125 C0.97022309 4.97517642 -0.47375854 3.21473524 -2 1 C-1.34 0.67 -0.68 0.34 0 0 Z " fill="#3B4E59" transform="translate(150,112)"/>
<path d="M0 0 C0.66 0 1.32 0 2 0 C1.4375 1.8125 1.4375 1.8125 0 4 C-4.27228927 6.21830405 -8.23163636 7.41849224 -13 8 C-12.67 7.34 -12.34 6.68 -12 6 C-10.68 6 -9.36 6 -8 6 C-8 5.34 -8 4.68 -8 4 C-6.576875 3.566875 -6.576875 3.566875 -5.125 3.125 C-1.94788422 2.23174891 -1.94788422 2.23174891 0 0 Z " fill="#374D58" transform="translate(225,182)"/>
<path d="M0 0 C1.43793392 0.31049726 2.8753318 0.6234776 4.3125 0.9375 C5.11300781 1.11152344 5.91351563 1.28554687 6.73828125 1.46484375 C9 2 9 2 12 3 C11.34 3 10.68 3 10 3 C10.33 4.32 10.66 5.64 11 7 C6.89188572 5.55007731 3.53144334 3.54592427 0 1 C0 0.67 0 0.34 0 0 Z " fill="#334955" transform="translate(157,77)"/>
<path d="M0 0 C2.31 0 4.62 0 7 0 C7 1.32 7 2.64 7 4 C4.69 4 2.38 4 0 4 C-0.33 3.34 -0.66 2.68 -1 2 C-0.67 1.34 -0.34 0.68 0 0 Z " fill="#0D1E30" transform="translate(118,87)"/>
<path d="M0 0 C0.33 0.66 0.66 1.32 1 2 C3.31 2 5.62 2 8 2 C4.85426323 4.09715785 2.98543749 4.52004559 -0.6875 5.125 C-1.68136719 5.29257812 -2.67523438 5.46015625 -3.69921875 5.6328125 C-4.45847656 5.75398438 -5.21773437 5.87515625 -6 6 C-6 5.34 -6 4.68 -6 4 C-4.35 3.67 -2.7 3.34 -1 3 C-0.67 2.01 -0.34 1.02 0 0 Z " fill="#3D5559" transform="translate(145,33)"/>
<path d="M0 0 C0.99 0.99 1.98 1.98 3 3 C1.68 5.31 0.36 7.62 -1 10 C-4.3 10 -7.6 10 -11 10 C-11 9.67 -11 9.34 -11 9 C-7.97265625 8.75585938 -7.97265625 8.75585938 -4.9453125 8.51171875 C-2.60480784 8.12606964 -2.60480784 8.12606964 -1 5 C-0.61500109 3.34450469 -0.27206865 1.6777567 0 0 Z " fill="#4C5761" transform="translate(221,165)"/>
<path d="M0 0 C0.33 0.99 0.66 1.98 1 3 C-1.97 5.97 -4.94 8.94 -8 12 C-8.99 11.67 -9.98 11.34 -11 11 C-10.28972656 10.37351562 -9.57945312 9.74703125 -8.84765625 9.1015625 C-7.46900391 7.87566406 -7.46900391 7.87566406 -6.0625 6.625 C-5.14597656 5.81289062 -4.22945312 5.00078125 -3.28515625 4.1640625 C-0.96398605 2.21290653 -0.96398605 2.21290653 0 0 Z " fill="#DAE1E4" transform="translate(248,100)"/>
<path d="M0 0 C0.66 0.33 1.32 0.66 2 1 C0.38405168 3.04119788 -1.2856382 5.04072937 -3 7 C-3.66 7 -4.32 7 -5 7 C-5 8.98 -5 10.96 -5 13 C-5.33 13 -5.66 13 -6 13 C-6.3125 9.8125 -6.3125 9.8125 -6 6 C-3.5625 3.125 -3.5625 3.125 -1 1 C-0.67 0.67 -0.34 0.34 0 0 Z " fill="#D3D9D5" transform="translate(134,196)"/>
<path d="M0 0 C0.66 0.33 1.32 0.66 2 1 C2.4140625 3.28515625 2.4140625 3.28515625 2.625 6.0625 C2.69976562 6.98160156 2.77453125 7.90070313 2.8515625 8.84765625 C2.92503906 9.91306641 2.92503906 9.91306641 3 11 C2.01 10.67 1.02 10.34 0 10 C-1.125 2.25 -1.125 2.25 0 0 Z " fill="#182D3C" transform="translate(241,59)"/>
<path d="M0 0 C0 0.33 0 0.66 0 1 C-0.56589844 1.12117187 -1.13179687 1.24234375 -1.71484375 1.3671875 C-2.81505859 1.61855469 -2.81505859 1.61855469 -3.9375 1.875 C-4.66839844 2.03742188 -5.39929688 2.19984375 -6.15234375 2.3671875 C-8.20700294 2.82961523 -8.20700294 2.82961523 -9 5 C-13.875 3.25 -13.875 3.25 -15 1 C-10.03926578 -0.32286246 -5.08888488 -0.08893197 0 0 Z " fill="#374753" transform="translate(192,165)"/>
<path d="M0 0 C0.33 0 0.66 0 1 0 C1 3.3 1 6.6 1 10 C0.01 9.34 -0.98 8.68 -2 8 C-2.99 7.67 -3.98 7.34 -5 7 C-4.54625 6.5875 -4.0925 6.175 -3.625 5.75 C-1.94049626 3.93591905 -1.00734029 2.24714373 0 0 Z " fill="#1F3442" transform="translate(280,153)"/>
<path d="M0 0 C2.31 0 4.62 0 7 0 C7 1.65 7 3.3 7 5 C3 5 3 5 1.25 3.625 C0 2 0 2 0 0 Z " fill="#192F3C" transform="translate(224,50)"/>
<path d="M0 0 C0.99 0.66 1.98 1.32 3 2 C2.01 5.3 1.02 8.6 0 12 C-0.33 12 -0.66 12 -1 12 C-1 9.69 -1 7.38 -1 5 C-1.66 4.67 -2.32 4.34 -3 4 C-2.01 2.68 -1.02 1.36 0 0 Z " fill="#3A4A55" transform="translate(244,182)"/>
<path d="M0 0 C0.66 0 1.32 0 2 0 C3 3 3 3 2.25 5.5625 C1 8 1 8 -2 10 C-2.99 9.67 -3.98 9.34 -5 9 C-4.360625 8.443125 -3.72125 7.88625 -3.0625 7.3125 C-0.80319013 4.77933439 -0.36850953 3.31658576 0 0 Z " fill="#304451" transform="translate(224,78)"/>
<path d="M0 0 C0.99 0.33 1.98 0.66 3 1 C3 1.66 3 2.32 3 3 C2.01 3.495 2.01 3.495 1 4 C0.27306096 5.97888961 -0.39816251 7.97954558 -1 10 C-1.33 10 -1.66 10 -2 10 C-2.1953125 3.9453125 -2.1953125 3.9453125 -2 2 C-1.34 1.34 -0.68 0.68 0 0 Z " fill="#27404C" transform="translate(186,45)"/>
<path d="M0 0 C0 0.33 0 0.66 0 1 C-1.670625 1.433125 -1.670625 1.433125 -3.375 1.875 C-7.00291092 2.69241329 -7.00291092 2.69241329 -9 5 C-9.39764263 6.98821313 -9.73775349 8.98944339 -10 11 C-10.33 11 -10.66 11 -11 11 C-11.48396854 3.61947973 -11.48396854 3.61947973 -9.4375 1 C-6.2014503 -0.32761013 -3.46093134 -0.19966912 0 0 Z " fill="#D0D6D7" transform="translate(124,134)"/>
<path d="M0 0 C0.99 0 1.98 0 3 0 C3 0.66 3 1.32 3 2 C4.98 1.67 6.96 1.34 9 1 C8.67 2.98 8.34 4.96 8 7 C4.46399535 5.08864614 2.21027154 3.37357234 0 0 Z " fill="#374D58" transform="translate(166,129)"/>
<path d="M0 0 C0.66 0.33 1.32 0.66 2 1 C1.0409375 1.9590625 1.0409375 1.9590625 0.0625 2.9375 C-2.61912635 6.91930882 -2.79498004 10.294792 -3 15 C-3.33 15 -3.66 15 -4 15 C-4.63019694 4.84682713 -4.63019694 4.84682713 -2 1.3125 C-1.34 0.879375 -0.68 0.44625 0 0 Z " fill="#B6BFC2" transform="translate(131,41)"/>
<path d="M0 0 C0.33 0.99 0.66 1.98 1 3 C-0.21484375 4.82421875 -0.21484375 4.82421875 -1.9375 6.6875 C-2.50339844 7.31011719 -3.06929687 7.93273437 -3.65234375 8.57421875 C-4.09707031 9.04472656 -4.54179687 9.51523438 -5 10 C-5.66 9.34 -6.32 8.68 -7 8 C-4.69 5.36 -2.38 2.72 0 0 Z " fill="#2F3E47" transform="translate(240,187)"/>
<path d="M0 0 C2.0625 0.4375 2.0625 0.4375 4 1 C3.525625 1.37125 3.05125 1.7425 2.5625 2.125 C0.47794198 4.62646962 0.35378509 6.81593418 0 10 C-0.66 9.34 -1.32 8.68 -2 8 C-1.42307692 1.42307692 -1.42307692 1.42307692 0 0 Z " fill="#3C4C55" transform="translate(217,95)"/>
<path d="M0 0 C-4.10542266 2.29903669 -8.69099505 4.35523153 -13.4375 3.625 C-13.953125 3.41875 -14.46875 3.2125 -15 3 C-10.38649226 -0.07567183 -5.44961357 -0.16513981 0 0 Z " fill="#ABB0B4" transform="translate(111,88)"/>
<path d="M0 0 C0.33 0 0.66 0 1 0 C1.25 2.3125 1.25 2.3125 1 5 C-1.37869491 7.65315971 -2.67124653 7.98103345 -6.25 8.1875 C-7.1575 8.125625 -8.065 8.06375 -9 8 C-6 6 -6 6 -3.375 4.5625 C-0.70953007 3.15982726 -0.70953007 3.15982726 0 0 Z " fill="#415057" transform="translate(111,44)"/>
<path d="M0 0 C1.65 0 3.3 0 5 0 C4.525625 0.474375 4.05125 0.94875 3.5625 1.4375 C1.31923904 5.11644797 1.26260422 8.7621112 1 13 C0.67 13 0.34 13 0 13 C0 8.71 0 4.42 0 0 Z " fill="#4A6069" transform="translate(183,43)"/>
<path d="M0 0 C3.46941546 0.45822468 6.67395049 0.89131683 10 2 C10.6875 4.0625 10.6875 4.0625 11 6 C7.2089881 4.55049545 3.6125362 2.84827434 0 1 C0 0.67 0 0.34 0 0 Z " fill="#576D72" transform="translate(233,41)"/>
<path d="M0 0 C0.99 0 1.98 0 3 0 C3 2.87137415 2.72886734 5.2303041 2 8 C1.01 8.495 1.01 8.495 0 9 C0 6.03 0 3.06 0 0 Z " fill="#1B313F" transform="translate(50,92)"/>
<path d="M0 0 C-2.88628401 1.57554035 -5.53342384 2.46276373 -8.75 3.125 C-9.94882813 3.37636719 -9.94882813 3.37636719 -11.171875 3.6328125 C-11.77515625 3.75398438 -12.3784375 3.87515625 -13 4 C-8.74504132 -0.44836589 -5.9812469 -0.09647172 0 0 Z " fill="#435861" transform="translate(104,78)"/>
<path d="M0 0 C0.33 0.99 0.66 1.98 1 3 C0.34 3 -0.32 3 -1 3 C-0.67 2.01 -0.34 1.02 0 0 Z M-2 3 C-1.67 3.66 -1.34 4.32 -1 5 C0.65 5 2.3 5 4 5 C1.66785852 6.20628008 -0.49642139 7.1654738 -3 8 C-3.33 7.01 -3.66 6.02 -4 5 C-3.34 5 -2.68 5 -2 5 C-2 4.34 -2 3.68 -2 3 Z " fill="#41585E" transform="translate(227,35)"/>
<path d="M0 0 C0.99 0.33 1.98 0.66 3 1 C1.36587557 2.70840281 0.13093906 3.93453047 -2 5 C-3.99960012 5.039992 -6.00047242 5.04346799 -8 5 C-7.4225 4.731875 -6.845 4.46375 -6.25 4.1875 C-3.93538025 3.06119881 -3.93538025 3.06119881 -1.9375 1.3125 C-0.9784375 0.6628125 -0.9784375 0.6628125 0 0 Z " fill="#DFE9E7" transform="translate(226,184)"/>
<path d="M0 0 C0 3 0 3 -1.53125 4.60546875 C-2.1809375 5.12753906 -2.830625 5.64960937 -3.5 6.1875 C-4.1496875 6.71730469 -4.799375 7.24710937 -5.46875 7.79296875 C-5.9740625 8.19128906 -6.479375 8.58960937 -7 9 C-7.66 8.67 -8.32 8.34 -9 8 C-6.03 5.36 -3.06 2.72 0 0 Z " fill="#3C434E" transform="translate(251,112)"/>
<path d="M0 0 C1.32 1.32 2.64 2.64 4 4 C2.35 5.65 0.7 7.3 -1 9 C-1.66 8.67 -2.32 8.34 -3 8 C-2.34 7.01 -1.68 6.02 -1 5 C-0.61500109 3.34450469 -0.27206865 1.6777567 0 0 Z " fill="#354853" transform="translate(232,101)"/>
<path d="M0 0 C0 3 0 3 -1.75 5.25 C-2.86375 6.11625 -2.86375 6.11625 -4 7 C-5.32 6.67 -6.64 6.34 -8 6 C-5.36 4.02 -2.72 2.04 0 0 Z " fill="#D6DCDD" transform="translate(228,119)"/>
<path d="M0 0 C1.98 0.99 3.96 1.98 6 3 C3.42786866 4.61949011 2.32330841 5.04408751 -0.75 4.625 C-1.4925 4.41875 -2.235 4.2125 -3 4 C-2.01 2.68 -1.02 1.36 0 0 Z " fill="#1D3341" transform="translate(61,84)"/>
<path d="M0 0 C3 1 3 1 5 2 C5 3.65 5 5.3 5 7 C3.02 5.35 1.04 3.7 -1 2 C-0.67 1.34 -0.34 0.68 0 0 Z " fill="#3A4F5A" transform="translate(234,59)"/>
<path d="M0 0 C1.32 1.32 2.64 2.64 4 4 C3.01 4.99 2.02 5.98 1 7 C-0.0625 4.625 -0.0625 4.625 -1 2 C-0.67 1.34 -0.34 0.68 0 0 Z " fill="#203644" transform="translate(269,129)"/>
<path d="M0 0 C-4.5 3 -4.5 3 -9 6 C-9 4.68 -9 3.36 -9 2 C-5.86501708 0.14223235 -3.62528568 -0.20140476 0 0 Z " fill="#334750" transform="translate(205,119)"/>
<path d="M0 0 C-1.28913487 0.67154933 -2.58140204 1.33708859 -3.875 2 C-4.59429687 2.37125 -5.31359375 2.7425 -6.0546875 3.125 C-8 4 -8 4 -10 4 C-10 3.01 -10 2.02 -10 1 C-3.375 -1.125 -3.375 -1.125 0 0 Z " fill="#223646" transform="translate(116,94)"/>
<path d="M0 0 C0.66 0.33 1.32 0.66 2 1 C-1.625 5.875 -1.625 5.875 -5 7 C-3.70700306 4.11562221 -2.34058637 2.12780579 0 0 Z " fill="#D6DEDF" transform="translate(200,121)"/>
<path d="M0 0 C-1.15173355 2.46800047 -2.04783565 4.04783565 -4 6 C-4.99 5.67 -5.98 5.34 -7 5 C-2.25 0 -2.25 0 0 0 Z " fill="#D7DEDF" transform="translate(236,113)"/>
<path d="M0 0 C2.3125 0.125 2.3125 0.125 5 1 C6.8125 4.0625 6.8125 4.0625 8 7 C4.2047869 5.50902342 2.38957269 3.24299151 0 0 Z " fill="#566971" transform="translate(137,103)"/>
<path d="M0 0 C0.66 0.66 1.32 1.32 2 2 C2.66 1.67 3.32 1.34 4 1 C3.625 3.4375 3.625 3.4375 3 6 C2.01 6.495 2.01 6.495 1 7 C0.67 4.69 0.34 2.38 0 0 Z " fill="#253C47" transform="translate(183,56)"/>
</svg>
